<mxfile host="app.diagrams.net" modified="2023-04-15T19:12:42.452Z" agent="Mozilla/5.0 (Windows NT 10.0; Win64; x64) AppleWebKit/537.36 (KHTML, like Gecko) Chrome/112.0.0.0 Safari/537.36 Edg/112.0.1722.39" etag="vlsrw5HnXIZLsIcR-Lh6" version="21.1.8" type="google">
  <diagram name="PÃ¡gina-1" id="y1q6a4Hl3T_ex5qrU7bF">
    <mxGraphModel grid="1" page="1" gridSize="10" guides="1" tooltips="1" connect="1" arrows="1" fold="1" pageScale="1" pageWidth="827" pageHeight="1169" math="0" shadow="0">
      <root>
        <mxCell id="0" />
        <mxCell id="1" parent="0" />
        <mxCell id="nX4CU3asi6fYrLEpRrpT-6" value="Medico" style="swimlane;fontStyle=0;childLayout=stackLayout;horizontal=1;startSize=26;fillColor=none;horizontalStack=0;resizeParent=1;resizeParentMax=0;resizeLast=0;collapsible=1;marginBottom=0;whiteSpace=wrap;html=1;" vertex="1" parent="1">
          <mxGeometry x="40" y="400" width="140" height="338" as="geometry" />
        </mxCell>
        <mxCell id="nX4CU3asi6fYrLEpRrpT-7" value="_id: Objectid" style="text;strokeColor=none;fillColor=none;align=left;verticalAlign=top;spacingLeft=4;spacingRight=4;overflow=hidden;rotatable=0;points=[[0,0.5],[1,0.5]];portConstraint=eastwest;whiteSpace=wrap;html=1;" vertex="1" parent="nX4CU3asi6fYrLEpRrpT-6">
          <mxGeometry y="26" width="140" height="26" as="geometry" />
        </mxCell>
        <mxCell id="nX4CU3asi6fYrLEpRrpT-8" value="nome: String *" style="text;strokeColor=none;fillColor=none;align=left;verticalAlign=top;spacingLeft=4;spacingRight=4;overflow=hidden;rotatable=0;points=[[0,0.5],[1,0.5]];portConstraint=eastwest;whiteSpace=wrap;html=1;" vertex="1" parent="nX4CU3asi6fYrLEpRrpT-6">
          <mxGeometry y="52" width="140" height="26" as="geometry" />
        </mxCell>
        <mxCell id="nX4CU3asi6fYrLEpRrpT-9" value="datanasc: Date *" style="text;strokeColor=none;fillColor=none;align=left;verticalAlign=top;spacingLeft=4;spacingRight=4;overflow=hidden;rotatable=0;points=[[0,0.5],[1,0.5]];portConstraint=eastwest;whiteSpace=wrap;html=1;" vertex="1" parent="nX4CU3asi6fYrLEpRrpT-6">
          <mxGeometry y="78" width="140" height="26" as="geometry" />
        </mxCell>
        <mxCell id="nX4CU3asi6fYrLEpRrpT-10" value="cpf: String *" style="text;strokeColor=none;fillColor=none;align=left;verticalAlign=top;spacingLeft=4;spacingRight=4;overflow=hidden;rotatable=0;points=[[0,0.5],[1,0.5]];portConstraint=eastwest;whiteSpace=wrap;html=1;" vertex="1" parent="nX4CU3asi6fYrLEpRrpT-6">
          <mxGeometry y="104" width="140" height="26" as="geometry" />
        </mxCell>
        <mxCell id="nX4CU3asi6fYrLEpRrpT-11" value="email: String&amp;nbsp; *" style="text;strokeColor=none;fillColor=none;align=left;verticalAlign=top;spacingLeft=4;spacingRight=4;overflow=hidden;rotatable=0;points=[[0,0.5],[1,0.5]];portConstraint=eastwest;whiteSpace=wrap;html=1;" vertex="1" parent="nX4CU3asi6fYrLEpRrpT-6">
          <mxGeometry y="130" width="140" height="26" as="geometry" />
        </mxCell>
        <mxCell id="dhtBjBxjH3uYsb6xU2VU-19" value="password: String *" style="text;strokeColor=none;fillColor=none;align=left;verticalAlign=top;spacingLeft=4;spacingRight=4;overflow=hidden;rotatable=0;points=[[0,0.5],[1,0.5]];portConstraint=eastwest;whiteSpace=wrap;html=1;" vertex="1" parent="nX4CU3asi6fYrLEpRrpT-6">
          <mxGeometry y="156" width="140" height="26" as="geometry" />
        </mxCell>
        <mxCell id="nX4CU3asi6fYrLEpRrpT-12" value="contato: String" style="text;strokeColor=none;fillColor=none;align=left;verticalAlign=top;spacingLeft=4;spacingRight=4;overflow=hidden;rotatable=0;points=[[0,0.5],[1,0.5]];portConstraint=eastwest;whiteSpace=wrap;html=1;" vertex="1" parent="nX4CU3asi6fYrLEpRrpT-6">
          <mxGeometry y="182" width="140" height="26" as="geometry" />
        </mxCell>
        <mxCell id="nX4CU3asi6fYrLEpRrpT-13" value="sexo: String" style="text;strokeColor=none;fillColor=none;align=left;verticalAlign=top;spacingLeft=4;spacingRight=4;overflow=hidden;rotatable=0;points=[[0,0.5],[1,0.5]];portConstraint=eastwest;whiteSpace=wrap;html=1;" vertex="1" parent="nX4CU3asi6fYrLEpRrpT-6">
          <mxGeometry y="208" width="140" height="26" as="geometry" />
        </mxCell>
        <mxCell id="nX4CU3asi6fYrLEpRrpT-14" value="endereco: String" style="text;strokeColor=none;fillColor=none;align=left;verticalAlign=top;spacingLeft=4;spacingRight=4;overflow=hidden;rotatable=0;points=[[0,0.5],[1,0.5]];portConstraint=eastwest;whiteSpace=wrap;html=1;" vertex="1" parent="nX4CU3asi6fYrLEpRrpT-6">
          <mxGeometry y="234" width="140" height="26" as="geometry" />
        </mxCell>
        <mxCell id="nX4CU3asi6fYrLEpRrpT-15" value="bairro: String" style="text;strokeColor=none;fillColor=none;align=left;verticalAlign=top;spacingLeft=4;spacingRight=4;overflow=hidden;rotatable=0;points=[[0,0.5],[1,0.5]];portConstraint=eastwest;whiteSpace=wrap;html=1;" vertex="1" parent="nX4CU3asi6fYrLEpRrpT-6">
          <mxGeometry y="260" width="140" height="26" as="geometry" />
        </mxCell>
        <mxCell id="nX4CU3asi6fYrLEpRrpT-16" value="cidade: String" style="text;strokeColor=none;fillColor=none;align=left;verticalAlign=top;spacingLeft=4;spacingRight=4;overflow=hidden;rotatable=0;points=[[0,0.5],[1,0.5]];portConstraint=eastwest;whiteSpace=wrap;html=1;" vertex="1" parent="nX4CU3asi6fYrLEpRrpT-6">
          <mxGeometry y="286" width="140" height="26" as="geometry" />
        </mxCell>
        <mxCell id="OE2S1h-xnGmrlmJOHICp-1" value="especialidade: String *" style="text;strokeColor=none;fillColor=none;align=left;verticalAlign=top;spacingLeft=4;spacingRight=4;overflow=hidden;rotatable=0;points=[[0,0.5],[1,0.5]];portConstraint=eastwest;whiteSpace=wrap;html=1;" vertex="1" parent="nX4CU3asi6fYrLEpRrpT-6">
          <mxGeometry y="312" width="140" height="26" as="geometry" />
        </mxCell>
        <mxCell id="nX4CU3asi6fYrLEpRrpT-25" value="Agendamento" style="swimlane;fontStyle=0;childLayout=stackLayout;horizontal=1;startSize=26;fillColor=none;horizontalStack=0;resizeParent=1;resizeParentMax=0;resizeLast=0;collapsible=1;marginBottom=0;whiteSpace=wrap;html=1;" vertex="1" parent="1">
          <mxGeometry x="330" y="130" width="140" height="182" as="geometry" />
        </mxCell>
        <mxCell id="nX4CU3asi6fYrLEpRrpT-26" value="_id: Objectid" style="text;strokeColor=none;fillColor=none;align=left;verticalAlign=top;spacingLeft=4;spacingRight=4;overflow=hidden;rotatable=0;points=[[0,0.5],[1,0.5]];portConstraint=eastwest;whiteSpace=wrap;html=1;" vertex="1" parent="nX4CU3asi6fYrLEpRrpT-25">
          <mxGeometry y="26" width="140" height="26" as="geometry" />
        </mxCell>
        <mxCell id="nX4CU3asi6fYrLEpRrpT-27" value="dataagendada: Date *" style="text;strokeColor=none;fillColor=none;align=left;verticalAlign=top;spacingLeft=4;spacingRight=4;overflow=hidden;rotatable=0;points=[[0,0.5],[1,0.5]];portConstraint=eastwest;whiteSpace=wrap;html=1;" vertex="1" parent="nX4CU3asi6fYrLEpRrpT-25">
          <mxGeometry y="52" width="140" height="26" as="geometry" />
        </mxCell>
        <mxCell id="nX4CU3asi6fYrLEpRrpT-28" value="horaagenda: Time *" style="text;strokeColor=none;fillColor=none;align=left;verticalAlign=top;spacingLeft=4;spacingRight=4;overflow=hidden;rotatable=0;points=[[0,0.5],[1,0.5]];portConstraint=eastwest;whiteSpace=wrap;html=1;" vertex="1" parent="nX4CU3asi6fYrLEpRrpT-25">
          <mxGeometry y="78" width="140" height="26" as="geometry" />
        </mxCell>
        <mxCell id="nX4CU3asi6fYrLEpRrpT-29" value="clinica: String" style="text;strokeColor=none;fillColor=none;align=left;verticalAlign=top;spacingLeft=4;spacingRight=4;overflow=hidden;rotatable=0;points=[[0,0.5],[1,0.5]];portConstraint=eastwest;whiteSpace=wrap;html=1;" vertex="1" parent="nX4CU3asi6fYrLEpRrpT-25">
          <mxGeometry y="104" width="140" height="26" as="geometry" />
        </mxCell>
        <mxCell id="nX4CU3asi6fYrLEpRrpT-30" value="especialidade: String *" style="text;strokeColor=none;fillColor=none;align=left;verticalAlign=top;spacingLeft=4;spacingRight=4;overflow=hidden;rotatable=0;points=[[0,0.5],[1,0.5]];portConstraint=eastwest;whiteSpace=wrap;html=1;" vertex="1" parent="nX4CU3asi6fYrLEpRrpT-25">
          <mxGeometry y="130" width="140" height="26" as="geometry" />
        </mxCell>
        <mxCell id="nX4CU3asi6fYrLEpRrpT-31" value="medico: String *" style="text;strokeColor=none;fillColor=none;align=left;verticalAlign=top;spacingLeft=4;spacingRight=4;overflow=hidden;rotatable=0;points=[[0,0.5],[1,0.5]];portConstraint=eastwest;whiteSpace=wrap;html=1;" vertex="1" parent="nX4CU3asi6fYrLEpRrpT-25">
          <mxGeometry y="156" width="140" height="26" as="geometry" />
        </mxCell>
        <mxCell id="nX4CU3asi6fYrLEpRrpT-36" value="Clinica" style="swimlane;fontStyle=0;childLayout=stackLayout;horizontal=1;startSize=26;fillColor=none;horizontalStack=0;resizeParent=1;resizeParentMax=0;resizeLast=0;collapsible=1;marginBottom=0;whiteSpace=wrap;html=1;" vertex="1" parent="1">
          <mxGeometry x="40" y="196" width="140" height="104" as="geometry" />
        </mxCell>
        <mxCell id="nX4CU3asi6fYrLEpRrpT-37" value="_id: Objectid" style="text;strokeColor=none;fillColor=none;align=left;verticalAlign=top;spacingLeft=4;spacingRight=4;overflow=hidden;rotatable=0;points=[[0,0.5],[1,0.5]];portConstraint=eastwest;whiteSpace=wrap;html=1;" vertex="1" parent="nX4CU3asi6fYrLEpRrpT-36">
          <mxGeometry y="26" width="140" height="26" as="geometry" />
        </mxCell>
        <mxCell id="nX4CU3asi6fYrLEpRrpT-38" value="nomeclinica: String" style="text;strokeColor=none;fillColor=none;align=left;verticalAlign=top;spacingLeft=4;spacingRight=4;overflow=hidden;rotatable=0;points=[[0,0.5],[1,0.5]];portConstraint=eastwest;whiteSpace=wrap;html=1;" vertex="1" parent="nX4CU3asi6fYrLEpRrpT-36">
          <mxGeometry y="52" width="140" height="26" as="geometry" />
        </mxCell>
        <mxCell id="nX4CU3asi6fYrLEpRrpT-39" value="descricaoclinica: String" style="text;strokeColor=none;fillColor=none;align=left;verticalAlign=top;spacingLeft=4;spacingRight=4;overflow=hidden;rotatable=0;points=[[0,0.5],[1,0.5]];portConstraint=eastwest;whiteSpace=wrap;html=1;" vertex="1" parent="nX4CU3asi6fYrLEpRrpT-36">
          <mxGeometry y="78" width="140" height="26" as="geometry" />
        </mxCell>
        <mxCell id="nX4CU3asi6fYrLEpRrpT-40" value="Consultas" style="swimlane;fontStyle=0;childLayout=stackLayout;horizontal=1;startSize=26;fillColor=none;horizontalStack=0;resizeParent=1;resizeParentMax=0;resizeLast=0;collapsible=1;marginBottom=0;whiteSpace=wrap;html=1;" vertex="1" parent="1">
          <mxGeometry x="340" y="500" width="140" height="104" as="geometry" />
        </mxCell>
        <mxCell id="nX4CU3asi6fYrLEpRrpT-41" value="_id: Objectid" style="text;strokeColor=none;fillColor=none;align=left;verticalAlign=top;spacingLeft=4;spacingRight=4;overflow=hidden;rotatable=0;points=[[0,0.5],[1,0.5]];portConstraint=eastwest;whiteSpace=wrap;html=1;" vertex="1" parent="nX4CU3asi6fYrLEpRrpT-40">
          <mxGeometry y="26" width="140" height="26" as="geometry" />
        </mxCell>
        <mxCell id="nX4CU3asi6fYrLEpRrpT-42" value="paciente: String *" style="text;strokeColor=none;fillColor=none;align=left;verticalAlign=top;spacingLeft=4;spacingRight=4;overflow=hidden;rotatable=0;points=[[0,0.5],[1,0.5]];portConstraint=eastwest;whiteSpace=wrap;html=1;" vertex="1" parent="nX4CU3asi6fYrLEpRrpT-40">
          <mxGeometry y="52" width="140" height="26" as="geometry" />
        </mxCell>
        <mxCell id="nX4CU3asi6fYrLEpRrpT-43" value="medico: String *" style="text;strokeColor=none;fillColor=none;align=left;verticalAlign=top;spacingLeft=4;spacingRight=4;overflow=hidden;rotatable=0;points=[[0,0.5],[1,0.5]];portConstraint=eastwest;whiteSpace=wrap;html=1;" vertex="1" parent="nX4CU3asi6fYrLEpRrpT-40">
          <mxGeometry y="78" width="140" height="26" as="geometry" />
        </mxCell>
        <mxCell id="dhtBjBxjH3uYsb6xU2VU-1" value="1" style="endArrow=open;html=1;endSize=12;startArrow=diamondThin;startSize=14;startFill=1;edgeStyle=orthogonalEdgeStyle;align=left;verticalAlign=bottom;rounded=0;entryX=0.429;entryY=0;entryDx=0;entryDy=0;entryPerimeter=0;" edge="1" parent="1" source="nX4CU3asi6fYrLEpRrpT-25" target="nX4CU3asi6fYrLEpRrpT-40">
          <mxGeometry x="-1" y="3" relative="1" as="geometry">
            <mxPoint x="390" y="300" as="sourcePoint" />
            <mxPoint x="550" y="300" as="targetPoint" />
          </mxGeometry>
        </mxCell>
        <mxCell id="dhtBjBxjH3uYsb6xU2VU-4" value="Paciente" style="swimlane;fontStyle=0;childLayout=stackLayout;horizontal=1;startSize=26;fillColor=none;horizontalStack=0;resizeParent=1;resizeParentMax=0;resizeLast=0;collapsible=1;marginBottom=0;whiteSpace=wrap;html=1;" vertex="1" parent="1">
          <mxGeometry x="630" y="130" width="140" height="312" as="geometry" />
        </mxCell>
        <mxCell id="dhtBjBxjH3uYsb6xU2VU-5" value="_id: Objectid" style="text;strokeColor=none;fillColor=none;align=left;verticalAlign=top;spacingLeft=4;spacingRight=4;overflow=hidden;rotatable=0;points=[[0,0.5],[1,0.5]];portConstraint=eastwest;whiteSpace=wrap;html=1;" vertex="1" parent="dhtBjBxjH3uYsb6xU2VU-4">
          <mxGeometry y="26" width="140" height="26" as="geometry" />
        </mxCell>
        <mxCell id="dhtBjBxjH3uYsb6xU2VU-6" value="nome: String *" style="text;strokeColor=none;fillColor=none;align=left;verticalAlign=top;spacingLeft=4;spacingRight=4;overflow=hidden;rotatable=0;points=[[0,0.5],[1,0.5]];portConstraint=eastwest;whiteSpace=wrap;html=1;" vertex="1" parent="dhtBjBxjH3uYsb6xU2VU-4">
          <mxGeometry y="52" width="140" height="26" as="geometry" />
        </mxCell>
        <mxCell id="dhtBjBxjH3uYsb6xU2VU-7" value="datanasc: Date *" style="text;strokeColor=none;fillColor=none;align=left;verticalAlign=top;spacingLeft=4;spacingRight=4;overflow=hidden;rotatable=0;points=[[0,0.5],[1,0.5]];portConstraint=eastwest;whiteSpace=wrap;html=1;" vertex="1" parent="dhtBjBxjH3uYsb6xU2VU-4">
          <mxGeometry y="78" width="140" height="26" as="geometry" />
        </mxCell>
        <mxCell id="dhtBjBxjH3uYsb6xU2VU-8" value="cpf: String *" style="text;strokeColor=none;fillColor=none;align=left;verticalAlign=top;spacingLeft=4;spacingRight=4;overflow=hidden;rotatable=0;points=[[0,0.5],[1,0.5]];portConstraint=eastwest;whiteSpace=wrap;html=1;" vertex="1" parent="dhtBjBxjH3uYsb6xU2VU-4">
          <mxGeometry y="104" width="140" height="26" as="geometry" />
        </mxCell>
        <mxCell id="dhtBjBxjH3uYsb6xU2VU-9" value="email: String *" style="text;strokeColor=none;fillColor=none;align=left;verticalAlign=top;spacingLeft=4;spacingRight=4;overflow=hidden;rotatable=0;points=[[0,0.5],[1,0.5]];portConstraint=eastwest;whiteSpace=wrap;html=1;" vertex="1" parent="dhtBjBxjH3uYsb6xU2VU-4">
          <mxGeometry y="130" width="140" height="26" as="geometry" />
        </mxCell>
        <mxCell id="dhtBjBxjH3uYsb6xU2VU-18" value="password: String *" style="text;strokeColor=none;fillColor=none;align=left;verticalAlign=top;spacingLeft=4;spacingRight=4;overflow=hidden;rotatable=0;points=[[0,0.5],[1,0.5]];portConstraint=eastwest;whiteSpace=wrap;html=1;" vertex="1" parent="dhtBjBxjH3uYsb6xU2VU-4">
          <mxGeometry y="156" width="140" height="26" as="geometry" />
        </mxCell>
        <mxCell id="dhtBjBxjH3uYsb6xU2VU-10" value="contato: String" style="text;strokeColor=none;fillColor=none;align=left;verticalAlign=top;spacingLeft=4;spacingRight=4;overflow=hidden;rotatable=0;points=[[0,0.5],[1,0.5]];portConstraint=eastwest;whiteSpace=wrap;html=1;" vertex="1" parent="dhtBjBxjH3uYsb6xU2VU-4">
          <mxGeometry y="182" width="140" height="26" as="geometry" />
        </mxCell>
        <mxCell id="dhtBjBxjH3uYsb6xU2VU-11" value="sexo: String" style="text;strokeColor=none;fillColor=none;align=left;verticalAlign=top;spacingLeft=4;spacingRight=4;overflow=hidden;rotatable=0;points=[[0,0.5],[1,0.5]];portConstraint=eastwest;whiteSpace=wrap;html=1;" vertex="1" parent="dhtBjBxjH3uYsb6xU2VU-4">
          <mxGeometry y="208" width="140" height="26" as="geometry" />
        </mxCell>
        <mxCell id="dhtBjBxjH3uYsb6xU2VU-12" value="endereco: String" style="text;strokeColor=none;fillColor=none;align=left;verticalAlign=top;spacingLeft=4;spacingRight=4;overflow=hidden;rotatable=0;points=[[0,0.5],[1,0.5]];portConstraint=eastwest;whiteSpace=wrap;html=1;" vertex="1" parent="dhtBjBxjH3uYsb6xU2VU-4">
          <mxGeometry y="234" width="140" height="26" as="geometry" />
        </mxCell>
        <mxCell id="dhtBjBxjH3uYsb6xU2VU-13" value="bairro: String" style="text;strokeColor=none;fillColor=none;align=left;verticalAlign=top;spacingLeft=4;spacingRight=4;overflow=hidden;rotatable=0;points=[[0,0.5],[1,0.5]];portConstraint=eastwest;whiteSpace=wrap;html=1;" vertex="1" parent="dhtBjBxjH3uYsb6xU2VU-4">
          <mxGeometry y="260" width="140" height="26" as="geometry" />
        </mxCell>
        <mxCell id="dhtBjBxjH3uYsb6xU2VU-14" value="cidade: String" style="text;strokeColor=none;fillColor=none;align=left;verticalAlign=top;spacingLeft=4;spacingRight=4;overflow=hidden;rotatable=0;points=[[0,0.5],[1,0.5]];portConstraint=eastwest;whiteSpace=wrap;html=1;" vertex="1" parent="dhtBjBxjH3uYsb6xU2VU-4">
          <mxGeometry y="286" width="140" height="26" as="geometry" />
        </mxCell>
        <mxCell id="dhtBjBxjH3uYsb6xU2VU-20" value="1" style="endArrow=open;html=1;endSize=12;startArrow=diamondThin;startSize=14;startFill=1;edgeStyle=orthogonalEdgeStyle;align=left;verticalAlign=bottom;rounded=0;" edge="1" parent="1" source="nX4CU3asi6fYrLEpRrpT-36" target="nX4CU3asi6fYrLEpRrpT-6">
          <mxGeometry x="-0.6" y="10" relative="1" as="geometry">
            <mxPoint x="200" y="340" as="sourcePoint" />
            <mxPoint x="360" y="340" as="targetPoint" />
            <mxPoint as="offset" />
          </mxGeometry>
        </mxCell>
        <mxCell id="dhtBjBxjH3uYsb6xU2VU-24" value="n" style="endArrow=open;html=1;endSize=12;startArrow=diamondThin;startSize=14;startFill=1;edgeStyle=orthogonalEdgeStyle;align=left;verticalAlign=bottom;rounded=0;exitX=1.018;exitY=0.116;exitDx=0;exitDy=0;exitPerimeter=0;" edge="1" parent="1" source="nX4CU3asi6fYrLEpRrpT-25" target="dhtBjBxjH3uYsb6xU2VU-4">
          <mxGeometry x="-1" y="3" relative="1" as="geometry">
            <mxPoint x="420" y="170" as="sourcePoint" />
            <mxPoint x="580" y="170" as="targetPoint" />
            <Array as="points">
              <mxPoint x="552" y="161" />
              <mxPoint x="552" y="150" />
            </Array>
          </mxGeometry>
        </mxCell>
        <mxCell id="dhtBjBxjH3uYsb6xU2VU-25" value="n" style="endArrow=open;html=1;endSize=12;startArrow=diamondThin;startSize=14;startFill=1;edgeStyle=orthogonalEdgeStyle;align=left;verticalAlign=bottom;rounded=0;exitX=0.007;exitY=0.169;exitDx=0;exitDy=0;exitPerimeter=0;entryX=0.999;entryY=0.05;entryDx=0;entryDy=0;entryPerimeter=0;" edge="1" parent="1" source="nX4CU3asi6fYrLEpRrpT-40" target="nX4CU3asi6fYrLEpRrpT-6">
          <mxGeometry x="-0.9161" y="-8" relative="1" as="geometry">
            <mxPoint x="210" y="430" as="sourcePoint" />
            <mxPoint x="370" y="430" as="targetPoint" />
            <mxPoint as="offset" />
          </mxGeometry>
        </mxCell>
        <mxCell id="OE2S1h-xnGmrlmJOHICp-2" value="" style="shape=stencil(lZzZshy3DYafRrdd3Jdrx3kPV1mOVFEsl6xsbx8wp9ia+dHztXR3FmCGBEEsPwC+yz/9+eGXP96/S+HPr18+//39vz/++vXDu/yXdyl9/P3D+y8fv9pP7/LP7/JPv33+8v5vXz7/8/df337/45dFuX76x+d/rU/4zxtfOWJeTCn89+0P4cjt/3/46xv5p4+/P5PHJ/J4hIHkSchrQvIs5LMieXkiT0fmxVQhHwHJ2xN5PhKvfQj5zD+w1XI02Gregtjk9SiFyEcS8hmJvPUn8nYUWHs+yhDyOYk8PW+1H7W/Jk/HfD7VsY/5BXkbQk6CTEd5lsw8Ii5GjmkeHZQgHuNZZ2JApYlHC0rfQIXjVvCTPu4L+YI+JaWvIEy7zfOZPh0BPz9Epa+gOUHPNuYjwGmFrbYP9BVUzdOXI8Hxevp6t56k9IM/X/bbjg7yN3o53353XrKecWSmF/2cRwIbaNr1rJ+2woD6rBY53NwXpTcNB3lG9SfLQ4C7cvpsF7qyPj/Lx4xX+BH5Gz19ftirPelNP39E/82Qk/yv6MsPfv7kz382h2b6K+iP0T87FrP9rG8qz46u5Yw+TvpxDKQXJ232nGIA08Zn+WTTZ5Bn3F75pI9HR32uEjRYTIL62YX+9PQv6MWe5HJ0kE9yQUzF+5vUH+W2PdoL+ioxVcc4Ju1vP+nHkeC+m/RkPRPvb1Z9M3qSj9FL1BbQ3yWVfzGPjPudQekpikwa55V0E1t1Wf8ZnL0KrorSD4hP0vZWJ33ZJ/4qGnu2D6XenG/JSj9xPRLtFfO/qJ/l+b6XjvbT6OW8xo0887M/KqafuB5PT/GDW08N+xO+b7814n1x8jR6ilfdedW0Lep30ucb+eh6Mtpnv9+C/trLsx6Z1/Osz7UdAe+j2H+jJ/9l91fW32/s85C0caB9cPawziNjWiqpXQsYP2f1j0bfcD2S3LWI+VTe0nugJ30o+3RO+nST5Jep9JRYF433WkZ/YdGa0Bf0F/Vojr4BfdN4vlWETNqRk9IPWH/b8M5Jf37CC3rxR0bfwf43hUFax/Td/juVvsF6ukM2BubXfa/2gZ70eej9apZ/wX0f+78P9JRvDsUTetgW8gW9xP89Yn5hq3X0DeQzt7af9Gmjai/oxV4ZfQN9i2Ef/8mQES0yBrnBnW9kdClkP5G+VwwCphkDYjpJL1mvKKSFmTRlKJQ1nKDJAwO5gYWaZGXAPKYqENQbAsOx6U0wBlxSVzi2943nXjMMjSWMgWL7eIb+J8NA8GVlk6Kt7C1XeCDQZtgG6prB+b8REY8zhzOiMmBAVNWCDVNHimCb6pIxYErZt0xOhsyQ61D1NoZC3zDcHjIvycySLKmgtlrWn4syYFwU1fEYAxlKy/vFMxvDoG9wqeWonOq6moAxYCx1ViQeGAhczFW9/2C7lJsT601ZwxmBwfiWMUzPQAHn0IjEGCp9w7yQEoXkJSiGM9pGFa4ZkoIOxkBSshw9N2WgrN2SdL1AHcMGy6LF7Q7G6SyN1hs3UKyWRwvSPiZeUUt0o2Ogb6jOsRsDYZ/GIMnFDDscumY4sZgHBlI+S14FfjOGBpGAMYysDIMYil7ReYrhmqFufPqBgfxDdY59niDnKwbB7IyBMNDa1U/PhEGr5bziRY2BUJrq/MNMaMgsi83uGwj3aq4wZwwNzqE5/zATIr/NBYnGQKUSyxz14PK+UtcMdUMzDwzkH5pXjcxS6pqeGwOpxsrW5D6ULYZrhqkhnDEk0FbLp8RqGAPd6e5KJsZAKWKPTlstEgCxWoqUuzJQ20R3KPas6IGMoTkGTItd/rAYSKzF2VYGglcCM5SBlM/Si9SUgXxcd1iDMVCtq5/QwiMDbXpsS/rAQEbA0ovo9kBB4nBOcTa8D8MVQI2BANuR3J1uWKEfXvkY8lyhuZxDR7e74uCuDBQJDIeKGQN5UQt2dA8DTaUxjK4MKNahUaUxUKBrsYsg28ZAttUCBTWVg6Gc4GKNgdjMdMXNxUBLShtbf2Cgas30ujQQPjSG7r6B8EyzpJKhGMOkJTnEdzGAuZ/VBYkTIXS7Lhokzn2Urxh6dQxgl9b9ct+QQL2nj5cmwtb27zYdAx3c1OTV/kLA8pyaP8yJIdxicJumXsUYgot/JoLv6yvcUaO6TucVGf5dn+c2QaHAtxU/MoA1XlKUDrFvcnjFkZ1yUCC6VCG7XfOaotsEdXWsG+bkShDtJQNa16slUc5+uWmKZy7FSq1ua8VOXe8uqdsDNStdal/ig/P6Te1flzeoEMx8fUlZN7wdIDzn0tKgT7myZQQ8XFpL6npYRy1th/eX9Ec5ugJl3w7nFYP3W5P0r13oH8FYK7Z1V4LSxVkVj7876+JioMkxUHF5/sSagkUozekrBX4rq3ebxjuUHKIzsadhxXFu02gHggNouMt0houDowrYmC5SnNhnsdBGFx6T8lnE3h0D+eoFsboQn056VGc3BteCi/uGjmbAUq3hMicKwC2ZG0UZaBrE0kU1ZR3hREtIFexrDG5MF083DLL6dAa/YfXIsnC1Sw1rO5bnqyNteB96c1ajoXobg0YP3EbUq/YdTe6L62WXcx+RBJJScTlyxRhrldUdAyVz3fU+rtSIlpR2+PKI6DCy5pdESUR3pZoFYwFD89pasD/IGBQ+KdvwvIJENTwpqN6tXeCPFPa16oKygjXnVnTo5Q6lzdp1srweMSQn1own3eJOYh6habiizQ06TJ72asEpX+b61NRWzuW54Ruqd1kJez9rdyhtQg9U20VdhKRUq7MaCaGHWtw5RAzhjEFR2ogBVs0OZIrY0VbdeNmM2EdSPSoV7uqE0pS3qni0B+8UA6KDZaqpHBxKl6G41+C8qXTtSbIICkcxq5oZYyg0XVk0qlwgKVe1tfbf0XoXF5xYjEbYXQkaexsD9YblqVfUGCgHz0NTmoU9wx5W/4LbA5VqcteC1oozaaKh6YjLYqA9nB0Xjwy0pKK55eCqRXbjqDctFdmNQaymDVpSdGKtWNXObjDPGCLokjFc9PNQM9nUVs9xMzoxtFd1sGNfzaoi1ozBSXLl18H12tUuHJSBbGvyupR4nsA1YI+E55CyazHiCcPkG7ECbzqo8lkKgjNiU5u8O5cI4tAldZ6Cik27ADsnfrFquemuubKoj+vcuB1dzNcbw+t5W9IHBhxtdbMRvWGfoTFIj97qWaVhwKi6tPIu6igNCtxZGkWmMrp67aqkE4LqWlb5Sk8FvIwe0SVNRDs3kQx3F9JW9hf0krd2jg+HawKOiF11BTQ6zyO71N7oqZ38nGbd9I3hPZeMNb76zc13DJRn046ClS/iemR+1uhJo6vKc7Xo8HyK0DduBtOe7cbx0dnyetJzF4hrabXklTAGB9+u3JXcvgIGjdPIrPOwjbu6svaZtYTzfX4+K948BKLzUPFmflAQRsuLCRVKTp8DBwga41Quo7lcrXKPQlL7Vm9mBDSfrQ3Toujm71ifo5bqb+YN40YETnqeZ4xatLmZl4w6f30zj+nped7Tr4fnSf1+eV7Vy5PnYaM2Qt/M217R38hH6Hle2K3/Zh7Z0/O8s19PvXlPQ+KNNa+N5yvQYGG0MirQt+bN0Z6IvfqGEry670KfsKcvaSdM4fjEtWKueX+eF5bzuntPQOKlPLFTLekkgNFT42bS+b48eBpIC3e539gfKWHldnPfxV9krjpETa1ywYaZqLXQzP49asPZgh5A/sHtN2JvQNAcJgeE0oNCK4kbhIKC0InLoEHh2DWche/J6Hs+HTPVoPFbYsTNdXPcvlcjY4k376YF9/5MQfTM5WvfXo37Tnly/hUUhl0vhOB69HwTFkqC2p/E740EBTzXCzm4ftXPsD3+d9Ozvkl8GLlTMeh7Eeu9LL4v8l4Wv10XFMSLDIsE9z5bRfvj7tcavAX7GdQ/RsYTgtq3yIhfcO+JJcxnXdNxTDf3UeUTEUX158X4QNDm2xgw/zqzmwd6fq9M2+nRXEU3EIDvMLrXA+8ev5JkZPC0sj71yU3xLtTg6ox7CardPEwliUW7eUdJ8y40O0nbCisOAWWtsRSuNqgS88ugWSvLdxCCkPOrplkjHn4zNavD4hdZHWjL771mZy55DFsXw2/VusUELs5pIYxn87OG+oEreeppAw7iZHWE/O5iVpyNmzezpol35MOR42KmWww+KSwxFwuyKGTJx+ReIGYl+PHnkJncfvj28vJvHz99enu4+fH/+lKz/entlef88/8A);lineShape=1;" vertex="1" parent="1">
          <mxGeometry x="302.01180768257905" y="115.20920959599187" width="281.8107556257467" height="337.36116087825735" as="geometry" />
        </mxCell>
        <mxCell id="OE2S1h-xnGmrlmJOHICp-3" value="" style="shape=stencil(lZ3J0hw3koSfhteyxA6ce6bfQ2aiWrLWiDJKPcvbDzCaqvrpjvrAunEJr8zEGotHxKf0tz9+/uH3z5/i9cefX7/88/N//fLjnz9/Sv/2KcZffvv589df/px/+pT+/VP6209fvn7+x9cv//rtx7/+/vsPS3L96T++/Of6hf/+C1fKLY6Fitf//PUvo95q+L9/+ftfgF9/+e0joN6u+i2g3dKFgBoV0CMChrxSv10dAO1WLgWkBoD5e00BdSCg2CsNGqVxC/ZKg54wbrUYAL6hXrdYFdAZMOyVGsxDDbdir1Rgpmu8haiAWBBQsy4NGqWabsEADeZhAnzxZXqlvFneMSMgNwVcNA/51mVY54KnJ5RbsC2KM11s4iagImBEA8COq/WWDED7YQJafuuj2y34KNErNduicx7oCfMQsKURaD/0W+62NBigO24elTRKww7jCaCPnqeGrdYMgHbdrqSACt8wATnYjoO1NAHNXomWRgu3IE/ouIEmICcFBDg1JqDZQUbz0OL9vvkA+P9nvgLkrIBCwxpv3T660MSl+1L7eGXB8p4Av1AqTVzeXFmVXinf3/h7AWUz0/hK5VZtpvGj6+4JcGVNQDFNoNArPQ6VjwBaGvNcslfKtFrndrGLPdNHz8VsykmmxTfvfQfQKM1zyb+BAb74CNCvzcQdAMVHiQDhdvkrwcRNQLGZznAu9Xlq+J6mV4p2ofT7M18Bhu0HOjV6uiUbJdLuJ6D5ngZ9qc9TwzZQo4/Om/3Q6KOnvmTz0Gge5jHjmjF9dNnMQ6dXKpsNRBpZn/qSa/e0+B4a3kcAvdJDUfh+QH0XMN4D9Ltd+P2A6gAapTnqbpYRYB5ktoEGHPcT4PcDWSgTMGR5j7vKtQWMy15poPozAXoujfvh+QrQqwFgT4+pkXUDwEdPgO7px0C/Aqj6M9DKGtHuh4Gm5QSokngEqIVyAMyz1ScODuMJUGV9riV+wvCzleYh36Kf3rQ08u6OY4CffIE+umwMjk7f4A4ptlAmwE38QGup2IVS+QnV3EUFfTMTEIsCyI6bgCzfkPGOG+5Ue1zErwBd5iGhcrLM7aaAiyau3f/7AYjoVHs6Vj4AIhzGw++4gH6N4Y7BgCrcc6l9AFy0Rdt9mh6Ai3dcUxVu3hjkann6Pj8A8PTu6iOb12Sjw7irdj8BkfZD12NmKRO0lrqqoVO/wZOv6+k9AZEmznwzU0crDCjyhIw63wI0BeBx/zh6H4CEjvKnpv0ARDQHnub2A3DYDw8v9wcAubyeHuIH4Lprsi8B337DMgX5o8XgaI9/eQUQ1WEZzDxKctxPQOBXEt271dPEiZ+vFfTCPbXUByDfx+0lICuAnJsbQEKX1+aV4t358v0AVHQdENAV/9SOHoCLVYeuV9YEpMMrfbsf6uCjcqjPeAJQ1xjqLqqdz6WhusbyU9PEWaSpNvT+PK2FB6CiebwAUQF4P/gTpo7GH+0ANDj8ozM6EbaAyE8QbaYmPluH3tMrWEWnhs905NXqTwj3g+d7J+6w44Y6c1bQkEdJjNcJQK3SIhxlYFhnAsRzMgGHbxBVunRWsMbdHfsBgGroUKOpND4qh/oqC8eyFqArAG+gocGvUtCNPQGinJSMQfkFiApAzdgB6R40/F5ARNfjGOouKoE1AR/WwG4Kn7jj8hZHSB6nszVXBaBGNu5e7gfgYLHbBsoNozRri347SrmiU20BogLi4Vz6dgPlch+G77xF81ytB43MAAejSczjfDCPH17uByCiC/jp2v8AwFF6cFgegICRpmWWyStdGHldpmVSAN5ATf2tafC129QcSAfj1aL4qfPZ2tRSnAD0hj5C8A9A42Om6bCmxhPXVNdIlZ05TQNHExDZXSR8jVRYb63KOZmAk7tIXinfZ+YlQD468R3nTzjcDw44WCj1fqM9AIEPsh0AXcDmVEsXa/cGiIO9DlWN13iIDthMx3mOHJ4ggMN+8FeqrCTuAOhE8FEqfMzYxE1ApEPA1lLM7HWw5T0BRDGcAHGUx3RafA4gnsCo6nqcANTIjIMV42lPi7soRj5bq/L5Yjh51uW4j+H0BHHbxYO/tSo9bwLwBqqqYIXBvpmqcaAJQFfLw5X5AHTWvas6aENnc6AqeS4waWsBLgUcNpBoZKGys7+ob2YCDlEauePCwalWNMwZDh7doofABOBxX5TaFhJfu0XdpxOABkdRj26IvPiK+ownAB3lRqkKgS0UC69NAMayipqW4WJNYAcgVssCXAoItLwNcHDzbeRxR5s800F28hiWKnpMttP7i6Hb2DVr8hW5VKNoLKQgC3vJJ5FH73VRpT4jA27FjEX5vGsQe3mjYCdmH2S71zj+m9UHdYiEGokq8vgnPRsj32nGPDg4SpISQALSLke0QwWpdVNe6OOB91dQVSfw3RH00g93Vv8rebkvDyfWpTfHITBxKT344jP3Uk/vhbdAH6qoXZjZsWhQ9R35rvr1hedPN9fFhdp1t6D4xfy7ptHei2lfTZM6Ap6Hvfp+IWu5V3WZBTRle1GSGPvle1E/ZMCg6pSPur9I/XOKJRvKU168lhFDHd2o5Uz0WCxUPW+R25uUAc2B8yl/6e8TD71HVcsij2e8m9xPebqPelRHHPsSe/Dxp0BQv9RvF9Ex6OTqeL9wXslHux9Bvg0NmEe8j6a8Wn3I2pzyweSJct9VsU+onzQ73xJarc39pmhdtab6Q0KHSat6fibOPql6HyXUT5oZbwlDalNeeFeZM3qKOkDZEGtZz//M6QjZfx/HJ2kCXeYskqT3dea8FtOXMo9/VP0wI8e+BdUHjvJB5Sle3y7/fUzLufz3ycBbaW06nph4OlRfzah/1n7/vKc8+VNq9/cne7M2H5+Lft9DDJzgWe/m1lOe9LHF19D9Tm7qWpSUlZBSUo2zy/ZUzf77h5TZqPcFjo9l/UZczzVpblBEe7xGPd8ikkkWT8P0JUpCDpp0Ge+8o738pYw11t+mfFJ9j8azDP/9Du+/KBr2+yx/qf1IXJvS3d7E9+/mccX7qzTXz0m/WgUIVP/H6gBN90tAfWnKX5fKw/wWc9yzvV8sPekgXzQV6Chv9stBXohLh+/Nvh5w/LPqh4f5Teah5PWTlDx2WJ9x8/ssH97av0HJCof3D74+Ud7si4D+kMWieWt/XZvxhPWQzR8SMH6Yh3ICAkaWs1FZA+qTU77o/iLOTjZ9I+D9kpsGTAMm5eRHDYzv849lYzQEvI+yRRoD6j9TPpm/juTt/GGaYraCGOzfm/KX+q/I35uz2qcXpjfktHl/Wg9J5+vC/Z6j3l8XBhiz+SsuJKzkoLFq9h9OefM3EgUtX7p+LqQkTPmo70Nh5zT0vDrK5zflZb9ceJ4kS7O40J6a8knXA8o35bnzeCZLg7rQnk2WyXWQt+zmC/XzKV9sPFn+su8leQu7HuXjW/J58700PvnN7zV95iCfNuuN5ZO9D71/VP/e4ffj/fr8bvnwlnzYnCcsn+y8IvnLz/ODvO8vOA/T7nwD+TjU3rzQvxSNen2U9/VA8t3fh/xR0QoBHOWj3nf4Ps3jWQf5/M58xfreeojGauL9FY19w+d5NH8s30cxK32aSVbLfWbfS/OVVF+9kIi23En6++Q/XOEZ2y/0/nGznmm+gr8/2RdL3dffJ33sqc5+0A9pvi7lYwSMXywKnNrvZC+EYUwp5JQuApzaL0TdCpaHF3B+Q3d/C+3H0P17KX632HIqT/ZmMBI628uhqX3B/opQjUeG/qIpn8w/A+fDlL/s92E/hmLEUIynh6LvE9HfO+Uv/X1KiglZ43cR/fNhw88hRn/IGt+J6N8Om/g1xbunvPl7icQXzL8UMV9gkQiVX3SQz+oPP8gHk6f1E5SqeZS3ePRBPtr3krzZmxHjQYtuqL+P/CVVZ07il65OErdaCSdxi41jLUQj7x/Ei64EFo86sVggU+PQJ3GjbbB4sE+lKITPKpEUi3KQIsbgzASMSKHK/u7kUU0bwgM5KPQ+T5iebfSahLkS0aOZhbRZJ18QOS7qbkp8d3roGa8qS8fE1PhLL56MjjyL02V8dysJnTHMYqdYRi3kUqdWxqDeZTmbqHNdTtEgE+jSiFhGxteli4AJApfqZxnzIi/LZ8Xr/rJ82cOaSToyB3HlHhCX5rIEZKQuWuQmIzPgUsM2YwrrRpzs2stpRrzEsk4TL2DNvz1sj6gHB28+TdY9bO2ga4YsjEsvG86X3m0+ON93m49fxtYMb20lX9E1bJVjM+qqb4sbs44um6BbO2EZhqB+z4RxwaC6WEIzwVhjXJAk6tZmkmh0HZ5yQKx+9eNxL8SrvgwdS0kdCGwAZs0/iOgvyZZkhcpV1rpFAas2Fi0WGDCYVjzWS7GojSuAlCtTmbnmgCnkLG7q/kncwuYsbix2EjdD6CRuPh6sxuAuFRbXlDYUdwv0KG8RedKX3II+yhvDh5aZewAO8uZhOMobwwEPYvOQHOQ3DJ+DvGYVn+TN44ffmy0fl+fLPPYBGbbLw6bvQ3d4KP4+pHAvD6HKp4MHUueXlIQpbx5m0uiXB1XXJ3qEjJEb2IPXVMk5yptHHT2KjwTRD/JwS4SuahFnPC0PvMpTcdjQnVFJVe2C1QljhkzYZcBRRGmTYUcMimU76O+T+rJeN4o8aXZreSmjg1xVccPAISvv6VB+ypMH5+lt+iBPEahNhI4yYnYRQJTfRBhRl91EMGl97iKk5PbZRWCp9sYuwksOt10EmRh3uwg17a9dBBzlNxF2YujtIvgHeWMIoPyGgXCQN4YDfu+GQUHyO4bGQd7fB+Z3xzBB+Q2DBR28G4YMym8YOAd5Y/gc5I1BhPIbhtJB3hhQKL9hWB3k/TxheWOIofyGgXaQN4Ybym8YdAf59753wwBE+aZG8lHe99ebDEmU3zAw6fzfMTyJcZ2sIi7fR1Pex58iNJaBy/fpKgyo70/6QLYucBcz0s3evLBQTrYGIhfqwzn6eUj6fI6uv5H/aTG07fcPDHBdbxQi2zHMqQjPjsFO9tGOIU8Mnx0DH+XNDXWUt/WD42ntIg/j09RfcaF9mpvrk2SP575hbNL8Wu3/Cx322TLmDhkEVjaWK2BM+bcqrhQLgQVkyOwygMje2WUY0X7cZTCRvb/LkEL5TQYWreddhhfKb/xLB3n/fc6YM+cnjv8mww6bPm8y+CJlkG0yBMkfsstARPlNhuNB3jLIUH6ToYnfu8kAjRQj2GSY4vhvMlhxfjcZsrh+ulbEOqzPTYYvcmuG+2+xo7dl9ASsCFEtuBuQvFMvH0/y/1Sr0BKQgVyNpcIZizU64xcbNidnfZG+WpMzPA8Z/VGpVlgxIHv0kBjgtXiFH4rDTnmxL7giTbUingmb+1Qvd8zj03R/JW7sbH2lEq83278J6TO1q72fUN+oVuOdWVSrj4rJU4WTDSeG7KPVZVrD+MQQbsHpFqTP7CqoUEB5V6GFKjysCjD6vShvFSoy2l8tbSrwcHtpLZiP/qWWVZ9M3OQ76/nJFUuaMcaZSDHlraIj3S9ts99xfr3CNFegsirzXDFsVYhSeWKHNuutGrlBubUriFxRyjJYmUHdLEOW74v2aHr3QZ4rmFmFMfIn7CqYoXxwRvdBvul9SvGUbvGXyBUFo+p7XHm7m7+CK8b05PoeVpDb2BdY0TGp/zyc2khbRVAqft6z6+ekr/ai8b6A5223CrRckWDKd/WnUQWbXrVH9aGiZnV/BTb+3sSPSL9dFTXVn4bj2XT/sr9uVQS1eB+Nv7Wov/D+6mPjH6bvHao/cLxmmH+D/c+rSXN84/2H2ReHKvXBv/fQcLmY/40r7lqFBOJjjKgZdhcXa49aofdQ8nsTj8aKyuY/YX/asAwHzrhcFZX1PMHmuJvzkO7T1cn5HS6bN3I+VHXPrm9g26myqZDGFb/NHiRS46oQrvohVmwunjOCFafNHkynlgtGccb9VZ2ffegQLef/oYK6yR8qtFsHiEMFeMt9OlSYr+pPOFSw38hjhXyTP/bUMPn33v/UQsAm+NSkYAc4LQkBsM9rCzg0sVFA5Eae3kfkUMi+WqJ1OvWZ0tYm7LgYVsoyHBufi6UUOEtkeDGqwndfNV9lReV7NbGJCjg04lHvb+Pjuho9sp2GVfmLnTuwWvehCTicYMpbH8cWZEMBh1HSKpusBK6+a1EB5GUblrd/KIS2WsElBeA93nQDHVITVne6qABsGm61mtZVy9+gObqHxlTG1Ti1vvJXOjTXatp29tS+y0fp0CCs6bl0akFmJXxPTc52AGyj5oBj40KpInhqBedPODSb81E6tLOzeTg1zHPAoSXfDnBafOIJPLQVtNWaDq3VbQOlhM7D4cECzm5dPS3FG1tYfW6WQ134bG0az0oVHdCrkWdWANUEGsbYSgeVtZkJ0LiLrPlYF+uLX0kulNTZyuiqYKXOe7rrUZkGa5Vd/eL5oLd2S6nlWkWbxrYHNbSraZU5tri6+RYFnJq3y0cn1si8hTGHk1aT5KYA1Ga8b3Nhg8yahudD/zvr0J0rm0yWArEaPfMTpDlv7hg0mQBxcubD/TA0KvPkFb0CCC2xHPxIQ/NzF/OHJ06SMwvXUloA6XV2bEuugGPjcwUcW6uLc/fcvF3YhqXgtRsuS/FeDBpKwNkgGrtU/aWOjcnlOC4HfWaoU3UCsK/XUFZCGUjzG1YYrTLvdu25qgDsXzr0OK4BmbrrGCgKQOXBDpp66A5nuao1ctvwoe0LK2eiL0BTAIVTNoDM/tWh8ZTVk4I/WgiytbCBvAMQBdRviNW2g3e1XO21ctvDoX6H2rDv2LCobu2nk0muxdVq5XCPyjcMDLwOI7LW45UiV3tjqvUCJAUcbgjRvltgZ+hQ/b5x/bxh/foWf4RXq+iV7WCjOOB4B4nZNAGHeRDj8tkl6qXWJ6NUT/eo+rAPXrKh6voEUJ3EpblKH9bOYaWhDqM2uCG26cb9uFqFWLmoDLyWxOnVuVnDsOKcnbkpC/DtR6/+fGw2iU62GgbSarX+C53raA1LP+6Fz6Wu8e1eWdfo6t7sB/PVIty9sW+9q7r+DKq/AohB0A9BF2ur08fpCXLH9cG+dWucNw76vfEaV6ScdlzXkMXgTIEJkA00uDjsaGqjDOYujaY632Cy63KFJAWg3to0ejq4Ydfy/3QFoAXR9DBeEWd298sh8AwhvwwoDAWgOWBBkcEmyqhaY2JUHtZqS6Oxa7BoBZrR2PlozdVHZ/XHeJETcGiNLVfWOkfoCVmN/HVjcHNsURKf+s0rgMSyl1JHgKRW1tPIeQXI9oQD/SPYR+PERaun8zSAXyEkQ/87EFqT44SwqhBPI/sVwAcKg9TB4uyHgbJW2WOcemUXmwoq0zesmPnTKt8CunWzW0Y2k8uKfTQZi9103THQnbguZps4Uga61Vc4A9J7gKZOpjOgvgvQs+wAqOpOXABi0VrsfwGYJirb+mmVvwJkAyBx1RLjxuDe37vzGJthZ6XWLQOVviFvXikyuVcVmoFO16X/2ygd6M+qYw20arrV+3raantAUKvmaXq9AhQbJaRYB9MeOBjknPWnJfUKIBfEAdDMNzjYIdqGBnhPALNqzgDx55wAVqnhMKzNIpGHiWvG8lgATg4ptpbIv9mcrTY4HcnKnQ12k7XdMRPpo/PmQiEtbvmH7KMpJbUlTRk9A/xiJ6dui7tziYY1albwaViDeirW0mBA9Q1EiTeWuL48CzRxl0ZFlhlPr3RtXgm7oVtl46cZvwXUockoy4yHJ1Tzxi+rnNJBzfs4Gp4a1dwziw1AT+iaEPGkD+wBzQzehjpf9XOJ+Ty12Z5unDRrpL7RuPir60uN006L3dONO2dbnZEFoMTZspnpQ2bxcAB9dNbY0ZO78gqgvpB2ai+uWmVDk2YCot3TdKFUM0cHh/InwC920oxr2HgqcANdm6OSvPH12ijrpIaWcae0frxQqIjC0KroS5WGVypW5XIwDb203f3AdR3UIdq5WLTRaJcDiEapmoXSUfcuRV3fh+W9an3IxDGTsVhxoid19yWgGIDmoZjuXbmj/Bbw7hOoIkGxirgLwCVUfJToftjOAwU5FsC+gS6UBbBXolBQKXbMnAE200SIW4Dx5kefAPMPv//w589//eWnX3799Y8/v3755+eP///Tl6+f//H1y79++/HxT3/8/MPvn+ff/hc=);lineShape=1;" vertex="1" parent="1">
          <mxGeometry x="310.29977354369043" y="99.16216713778158" width="494.57735890554045" height="363.76287366795725" as="geometry" />
        </mxCell>
        <mxCell id="OE2S1h-xnGmrlmJOHICp-4" value="" style="shape=stencil(rZ3ZkmS3kUS/hq9l2Jdnzeg/aKaWSJOGpJHULH8/wFBZWe2OPOgymzcu4ZX34gKBWD2+y3/67Yfvf/nyXQq//f7rz3//8l8//uX3H77L//ZdSj/+9MOXX3/8ff3Td/nfv8t/+uvPv375268///Onv/zx7798vyX3P/3Hz/+5/8J//4Gb7W2MjUrhf/74L6m+lfh//+XPfwD+8eNPXwOKAVJDQMwK+Nd/OQPqW0tfA8rbLAjIRQEjAWD976CAVhGQsgIKAfLbjArIAQHV3iHSS+fH/34HrN/sAEhvPStg0COlt5wU0AgQ36b9Au6l+FarAhID9DvktzAAEN6m/UKgdwhvRV46vY35GjDm22gGgA+3APrSV0CKBoBVGuPx9z4AOqzSApRgAFil0d+mvXSjR+pv1QCVAbErgPbSaG/dfiEzINuyJnrpevjSEdTMApSsgACabwGC/ELEMz2W2poGoL30roU+AuilXZHFt0GPtBRZMgA9UrYvvQC0Ssm0d0R1vwClfuqR0kOpfOtLx7duq4TLGt9yNgC9dLATFx//5RWg2ZkmzbcAybZ3gGXt09T9AsCJW4DmqwTLugB6RONjO74CBN8acE/3cThAnR5pvGUDNNCtCxBse1f4cL2bIotvBXbrAqiaiaj5FsDVDFlkvb01eYfA36G9pamARi9dbS+Fx530ClCHAiI90rJSv74U48RbtBfVfAtQwBJYAHmkBaALZQH0kQYqgZ7VWF8AXFZTxgtQ6EybVbkAkX4hPY7LO2DZBvQLSW2NBej0HdaRHwoo9EjrfGUFRDqi8S18vVtj4+8QHkf+A6DTSy/dWhVAe6nNx432AUBnegHEB1qAQL8wbC+92zevAKJmFoCMxAUISQGk+Vp/a/YLBb7DAuiyrlMOX7q1hy3/AUAm3ALoASq4vRcgDgV0uIFaVWM9vuuRV4AyFUBnegFiUwB57K3Y5lu+KH3pojGBmNEMbcXUDPuiLb/1qYAG9/QC6G7N6HAsQKgKyLT5kpoOMaPHvgB6RBOaP801X0LjZAHEwFoA8tgXICUFkK3RgvpA8T1K8Aqgyjg9fPhXgGTvQNq7zoel/REAj1TNDF2AAMu6ANnegQzdOtRDiRGDCAugByii1qjDznRErVG7fbj4sGRfAaq9Q6RV6g/76x3wHnw5A5o6TQtAlsACiPO6AIUeqdodFx4m1ytAtUfCrbF069daY/I7l0cg5ilP/smSL0XkO3218tj6H+Tp72c13ybe6dXU6nwEa1/Ji2k1H9vqLJ/U+Vlnj7Z18vWhq60mXx/yfGp8+AhPeXKil7xsoMHf1wKag49AUD9poEm15Js+T6b9HPSIDVS+ZT5usId8x6jEkm9N5Ol9l3yuIk+2zpIP+vcjrH8Zeh4bmndLXq6zhudlyYtSbKh1S9f1aah/lrxc4BUdkdIe6uApn0EhlqbGJtvLS14scjaXS1W7jo3fJS/rz7bvkpeAUMHzXspj+R7yy5Cl71XUm83oRC15iQZl/l5ZkzbLiqXnyRqeypinWvJyXjLvh+TrQxfqks/698lGLu+G1VM+kHy0+B3rn2ipQjTMSlATPGGouXjUFS32Ja8JrccHP8rnaamdxwK8ktdsLUYr87RkLbpZeej5vcqX/jn5+Knn7484/Qd52A9Lvpo87LclL/szob7KzWKzj4DCK/mo+4fiRLlasBjP+5LXVAj6e0tes8wsX9ReShjByRY5uMpHe1+Sz5azu8nbfrjIa9KE5ZPlo2/yTffPRT59aj2jOs9X+WrytJ+jZT8wi5vD4/h9kAf7Kh/0J8kni6smtMeWvJYD3OTtfVF+qD12eX4LwvJ6bvNdnx/lu6/PRd70eQZ9u81x/fsJ9NUyfzXXi/Zb8uokjNQsefHf4yNkcJavj9T0U5786yWv8WP0l3ctlYQ4UP9v81rlyV/edU4mT/utqD6JGL3b5rKuD6WPtjmrf5+yFtvc1PWkHPU2177+vhyT2tt9iDzZh8/t+EGe3jfqfR0wPrA/f1R5uH/3ctjzk3xQ/XOVLyYPzx+nJlEDJl2jpbHCY8FeyQeTh/0Qh/ovAe3n+B4u+SBP7zvU3wx43qOlvAIG7Jd80vclfzA29RcC2qs7LWnyYJ/vJKM+P8pXf9+LfDJ52g9F9fNVvuh+uMjbfkP5rP7pVT7r+cL1yZpjvcgnjblf9kM6rA/Jmz0Z0J+KB/1G9+lOKejzkL+/5DWljJnMJa85OrRPdnpA7yOy996j60/xSqXQj8v8g/VAVceWwsTFHJZ/4TI6K9zgmjj1ZLkirrshgCUYVuiFdp4XMD3iXi/Es4pjZlfXnVOc1W1+SjRXVcns4lePIGBEVRNAiQOS/jAY73Rzn8KpWa39jNHmrM7osg4pmKSZ5Yy+a1JVk3Ehk3quGSN5SXPKXGJheauCdkvSa6ri8bBCg4pe3HuN8VOckjh2J3BlUlSTvWHIKapK7egRWIKuP8rxX4iL/zOwgjtquGxguC9q9P1dg78STyJOwc2oscp9W8Gft1j3kqeSmaDbYN3mlBwN5qvGR9PLC3nZCJGd/2BVFwmT5eb7LGuKygmC3ZcF1ZNXCRZUCUEvqUs120me2jxOVYuJn9/KIqnJI5hx07C+ydezP6zfb5Yn+yaor7drWfl5TP7yviI/sRnJn3/ijWLreSlxPsmTuWjfd2s7/PuHWnk8v7LfLh05J3myMF2e281O8uQ8uHzBYJzL14s+1PWsWNh8kieT2vfDe1n+t+3P1PBed/mOwb6TPAVH/H3HRf+rkT9uf19s2XnT51HlGz6P5JJyuKyPtIDmgMnRoKZM5gq9oLUcmd3JoLHQzHWSJ3m+T12egu/+/PmiT1ye97PKl4u+VfejXM6vy1PRs3/f+sn9Ux8r/Ep+qjw13gWtTdrZatYnReUpOBU0drfkqYrc7M/M9kNUN33JU3FG1FxzZvshai54yWOwTGN9S36ivOT+8ry4abqfJ9qfUfdPCVg8FzVkUy7BTdWfhZMxUfXzrt7B9W9V5el8uTzHbU7ymAww+czBR3tfblmIypOw5ClZFfW8l4L6M2rP9q6OQ09ca/MqFo9aLUGpeJ9GzTUXLo6MGqta8lR8bOercBtY1Nh46Zh8PcmTv+bPM7Cf0NdnXNZTctPP6tlv3D/cEBn1vtjVwhzJkbBSwABd1FqFGrDY1OJQNV72g7RcV7Z/koZnasL1ty7zmvE+tRjgrt6nZK3WNtTCxRaPX/8gzyHMJM/D5z3p/bjbLfB5pBa9sr9jfCW1Xd5XQrBLnpKp1r9VuVg86f1e++15TP7yPE3lsbjB5Afq/5M83XcnebJnXH6i/XaSx+IblW/sf53kOeIv36tx/NP225In+9z2/7Mh8NvOV0uYXUxaa9QyF99ocHvJ834Q/dYK3l+mP9vN3hD93CrGN6ImdHbvLdo/0izcGvY6Rq01be1if0ptxu5nRntGamsbxz+t1qgNLNY3EpMlz+uvvSoT44dRa8+WPMU3jB2q3/wR8Xf6pZjm4a2/y8dLckfssR4v9onYe/3mj6g8d76e5LEY6CBP2ViXzxf/y+XZv1b5ctk/Ls/5L5WvGM+xWpRNMsLPL/IN9f9Jnoqt/fkbJttdnu2Nk/xl/3ytr/rA/NFJnuL5UWsL+7xkT+U8joD2s63/CHg/RrUHRsQykKhsRYO5hDy3zI3r3ivKzSRR7fmRLv6R+AsjX+Jp0tu45NmfFXtg3M67xOs23Rmuv9gPTz61V/HDqfKc35H8+GDGlKC9saNhfMn//i1e6vLEyuTyHe2BkzznK3U9WT+c5Dnfp/Lz9vwmT/vH3nd+sl5iBqzMOslT8bTLc/H9SZ70+Ume/Edbz5ku96MUIc18Kc2RePvMt3jd1/bkLBf7TeLVm9aVC5GiytP7JtVXm2eW/U15fibGTZpP3MS31Kyl+nmyPZP1ftxMvNTcqPmXJU/2bVH/dFbM9xXNFyx58n+L6tvZMN5utMGT40VV8+mTK9Oa7f/GbDy2/o3pfoxLhPNlXf332fF+NAaY2TH/ZRQzk+3PofGHJU/NSEPzU1se9MnQXuAtj9XWh+dBecl3XOV9fUg+GhXSHSAR+jtAVfoF4Dq3I2FAjJrUnZckbVIGiTug+WcmgHEe3AF6MK8A1RSXVSpaqnkH5E/tvVg0uXgHqDa9AOpnH8n16QVgzZrzknBrWkG0AJix6ocThy5H1xrABcCY4lAnbgEw6T+UAWQO9kKntohNDvPHqXWwc3Bc2pquF4AuNq8c2QD6hahNDHNwqN9y1QtAzSwebF4Acp629SWPxFRQKdkBmlzi79xak/OBRge7AGTQpqK0vJMrSLYJZr+A/eDV+L4m2kjJ2Cw3gB6p2q1+ARgl0R2gqvIC6GboTXQEU9fI8x3gXxofaWhs6fYLw47oBWBMW3eAUrVdAcNOHJKPBLsfrgA/0xfA8F9gvgy1Ka8AVWRXgHRY3wCWJrwD1A+7AqYpMmQJMRaVDSDaj2yGLiuyBZDc3wbQL5SD1qBg0wJUA1C2ORdzByaWl+SqXEj7ymKA6lZmI9z1nwYgervczIUe2NKzAKq9mZAwu6pkQvI87AbqWMWVh5YdbZvvwqlldiuS0AW7H7hQvrgf17DypXgjWcPUarHc5yWWUSy5PTmYvWspLfqBVG7WQDkrtm8V5xatGC/c5ZQWgKIExGbrk1+40BkWbTefBUvAdoVkVwDFNErVJP28MBQ2M9YzP1Izh4OJsIs7TRnj5sVIL2ZClo9irBqTadGK0XZMTqWXYYYuEwGVYXccEzCXqdm4GbG7r7i9FDj8OW1rcP9XNfKCBcBO9GAufmAi7KAlymNe+W2LAsgS2AS6XQEY9LUq1jEwal2tbHSPy7pwDA8FkMfuJMaDgwg1aeRkAchjr0lLpQbfQDVbrrlhbrfa/Lo9X4sBEhgcFbvxnNp6VEzfO3f2qLw1imq+wWMBa9WLfQGQI71aSUFGW2MBmgEwR1HVHRiJGajboUoASdWbmg6D27KrReFG5O3dlCRxcKH2pp63X0hwiy6Al4JQ6qR2NU5GwFu0GhHpCBjRrcOqIy7U8+bi98mKbGi9f59Yf70Awg3yHMh1Bjj7NncUVCO42SVCtKxTjfU9wYsHVgT7BdreLah1v0d+UdbO2sD74JkylhfvTJreolozC4DTUpwTo2O8tRntcmdajGa1zJ19oGbW/S5Oo/lESVNTnbOPLWv5f+/ocOzqZXmkhjZfy3qLdmZ/bzY2dgFwCE3RgFTnkuNm9D0LQDWOrSphW6/YNNaqqZmKVZcLIAZW54nCza6sXadJj9S08aQXHqTTNFPbubNlF25XBdAN1Gz4Sedem2ZD+/plZFK3L83TeJuNHujM1e4DvjqTOzUbntCZmqpNDdD2hJ7iAohV2SOr+6mmQ2cCtx5swERAJdCNZaYH3BrPB/gAwGmLUc3Q9VY4k9IbOThA25N6u42ZS/ZYQGl1GXiAuunWxnG+bqGWPT6OilOKbo19Qng84zQA3XHd6oMa56cXQI7oAlBDTbfYTOMK797U1mhcUtS7+qKN5wh2M3QbF7VvY0e2RkWXplumaU+0o1+Y9g5cx7/nzFrjEflAwxJHC0DMIT5cd4/Ag60xrJa5ce3hiEqO0di1HN5NVPAAjVP7F5V/jmSzbzIva7JH4oaQPQrafoH20vaehwGohKxorLJl5CxYAG2i4iaYXXPeFYBVcFV9oMashwsgPlDjPp7RrHGPiZVGs+2dmEm020szNcKuJM8KoPDpnjhvv0DND2Nod8sCUNhu2EDUxlz8Y2o1RbtMnDf215YwTDEtcbQApPl2/FZWiSdsT+OIakwCO6OG4lvEIzqNFaUx69/0NsSI7sBMGnVoTDI+vXE3YPJr2qjPHVagSk9LTVWOe+9K96oACp9OC59Wbr6cRUuq6kT3eCei5B24PWOnuroCcGsUNdb3HEwCmC+6g2D0SEY3XtmqnNU4Hzq/dLNH6ph5naZbK8fuZ1O9VLlN+Fml/QFAXta0HHttGIVbANEalZkhpyXwdtiZvoPNfapsVe4ygqoAahaeNomqFubiHnZE2SKbQ03pnfPgVRLrvvL0tl3OERVAGY5dMCK/wHTPuyQlKoDMn2eN4wcAqkrLi9aIQbU5tc2yRj7TUy/FykMinjWOHwCojKdGTip3jk3L7ZaJAdojIF0AQj510d4nAG6+qVqjDGzvOgCY//EIQHvJAQ09lMNLM0XUAcCcNIcPxxM3fS9t1i3SGv4LBbsTnsV474DMRuJUS2BX0vCZlshJYWaRXVv3KWq1rTWKAtD8MUVWIia0p7kDm32O7wdxywrTUc1x4MOj7MC+gYICKJK47zhhkJys+YaN6+SK8g0QTsKLmhmapdkjIek8nABotzrgomZOAOKpOQAahh6PACpXPQAqdiccAbdllQ/HOZQj4LJbHUAJ7QMgY6bp8NIZp38fAIm19wlAwZzDAYq3D6dHNGJA6tmb8wGAmm9o1eOuYr/YrVUB6LFbi1IOt0fSKYMTky5ut17mvE8rz0vMXTaH+tPpqmaUPbpjCHhaQCo1nLU2h6Y5EyeDd6GzEYSjw9FteiyH4qe1BCcuqZrNOL8587rd46QAdPya5oESl9xOHxF5cfys4ClxsP8IwA/XbFmZGWUD7BfQEmh6ptNFGTe1ZlLh82CT5hLnH2azI8ojcKbPfCpY1Du7zWUq7DR1jSSmwuO8Tr+A/sPpHShhcVylS3zJvwPafKcvfTui9tLooZx2Kyrj03kg5orzEeXNdzii/EiuNaia4qiXMCB10nyUlD/qVow6NBvO/f8N6DZOuiAFzRzaJbI7SGm3DiXFf47Y/UbjJHEfyjYdigIoNTVt7N6+2NnblQBt6jfnVYLMl6lV0+oqU7+GKeQdLpH1aeeByabn1Ga0NLF3YAO6AtBp8lndl6SLhSmW3XqJJCazjC+BQfnSOdweKZh1j+FTM3RzvDlNcj9sl4aPqCiBu9OkgKtb5oDbO9gkjYtr6YCL8+qAi3us73B1wB1w8RQVcA0iiJd1D1PoL1wDIfoL11CLAnie3hFw8bJ0iAhXlD9bYj+GvC7fwcZqoAk3NKe4AFTvPa2MvnBf1rQKqQVAE27a9MnIxokp4xL5pacFN7nUcxoLSeECjwWQD7eDzPxIoioLz/vbgKEAHGAQgpr3l1j8GYHDNA+Ia0ZBwgL3nIW+9zUr4oBL3kUB18yOAy65IwVcNM0JcMl/OeCSYdPvcAmunwCX1KjOcQ23vIuWO4TrkUgKwCCWndJ6qeaZjzvqA+CSbBI3qPJg6jmtKOSaOxJXbgEu5ncxAN7tZonWi8k0bZZGvp0HLai4Jv00kV9ul5B0ltRLpMLuxXr1/XRr1FtQVxgzK088ndYCsUeCMEA8gnq1sXRITGfTteu9uABUZXio5ukcvu/Ku1p5LpqHmGrHAtRp/Td1sBJoWqa7R5VwZZgWSTEl2aaKsGEl1FO3a8+sQg93q1e3Tc4dFS2Mr8xGdKjQm1yGdaoBxJfOpr0vpmu2qtvAL51tSMglCZ6sIJtZlDdVhDxSZN2aTiWuBIh6RFvkR7JJXS1xTCpqHKElPkDBZpEkTkGEQ0E2mj9BtUbj6RO7+tnqq8nSHVa3tcvWqSDbYiGNB4oOy6XuSnoqWx96xzWmtB5dmyEvM3aGFW/ubgAqW/eWoIxJjmEVqy1j6+6oGtS99UyYbr21cVSNAu/OEnqkYqN82DMbxb7DpTvG+L8ah+9HtrL1wh/OKDYaJ/2G0aptALVxJM0oNDbhRrKOhsItENF66nhE9jB6u93yTLs1WktQwUrJYVOmG0/ZXQBhkGkFlcCmWZBfqMyLPbWKZHe8wfbuFohbAMrhPSkK3gEN9dImEEgKwN7Gbj0TDW3vbkxvC0CmQ2/WB8XjKXq189DRee3Gh7dbRqmR0NhMG6dRerFGEeaC6K5mLn2yWQPTbaBx0rNNnWO79dn0/QFASY4F0A83cW5Yt0FsPXD7sU8G4kkbe5BXVABdKN0Y93rE0HcPWra+AJSibqY1Ok/baFYI3Ln0fn/XqQCcHzDUlN4MAUwp4KQFFHVoRsa4+7yZR0EfiQOo+8gXBZCtsZkajAviQh4hqrIza2Cz6oWteIhHoWlspnOzSzOezjuJh0TjN00IfTjrfd/qmVapGvXPZdjFibmEjujTsngHdEwgb/vLAPjhzNvtnZlL8uGRyAfatryx4JCq3A5MUgC5ls1oyjvzyzdjq9sd/UwuJPdDH8gE2szm2+YKvbQzZjAhfTPWwDsrlFjGT5PrFUCcps7s79WJSCZTw02tqnqaja8AygrF4/Kq3w8TaTerFQJvogTi9BvGuMeNtdVKXAfXR1QrcR1MilktfLo8CqLz2sFSm+JHHsruxrQxgci4121OHc/92yFlY9wj82dT9BmnH35pY1Qa3EhYrU92AXDznYgMkXGvqsMxuOp2Jw8MQEmXTfcogIpB5k0oaQC6sp4Nou+Ay4Qpm+gwmGFs027ajD5iCFgA8RRHZ27FbByXnSn6kl7sgxm7q11Zg9vAqzGXjAtrYLRlnazIbPTwAuAq+WzOiXmgGoyQnn0gp9LdZA/8C9In+yR7eAVQOmCeZ16MjHFGTE0VqyJZAPIfyjRq6YiGbhk2DYEpNoqlCPdQQ3oH60yfCZVA6Zq1fOY8XgFE802mnClOqp/R/FmAbI+EvObV2N+ZvmiXpNjsRHwkcwd2/ow4wYvxy1dM65Rsu7ViGHsBJDA4ed5rMWN9DyCkD2eRkxsLv6WmJhMv7CotnylImy/a9u6sBCzeOrmUp/iUFr6B8lSLbHJ+elf82cwICvYvgKqZwZM1La2zSw1oZoT1fTzrcM8ACyI8y8xfAXT6KKebc7W5eZehK36mmT94l8zalBZSAtkYZHZxD30HH4M3URnnYt+BOw93JbItK9mtu9bZXpo8FJ+W86HE7xVCDvU3IMRHuSJOY4WoxuM4uOgC8NFICDgNX7oA/AxdAD5Air7dcUTVBeBDsCj6eByzhYDTIK8LQEIbN8BpGNkF4OPOLgAfqIaA08i2C8DHO5G5kdwCmhi+3520pstIcSTzX5/FlmeAD5uZWPiYjI56Tox6JUs2XfTxAmRbJeoKSklrC+bEas8F8CGJFBZIUSMVz2LLVwDXGnSRJuP2nOxdJh/vdJkMedJLpL2jBRMn1yZH41PZxZY8x1Q330BregGiAcjciN0c3oHfYQGiASgWEq3j8slT9gqgv9C5IeA04pZiUschugg4jem9AHwQ8AXw6UfyYcaUNT+OS74AfCAzhQWOI5/J7DsOlb4AfGw1PtJpMPYF4GPncJVOw70vAB8fjl/6NKAc69wPE9BZ3iess7zO2OI3dkeRv4FNULnsCtd5nL2z7PfkQR/d4geXgpbDycQkrXJVTq6wsTTCHtBNIUez6DtPytJ6zU2PQEk1m67X0OAphwAOFZtZSnpyq3ixW7ZhpNsS0lsent9YZJc8VU9kU1oNY2g+2LVhUWSy/dMwZZ9OETe6XzXJukN6pKXNN6q4P13lVjYQ7PtyMUow67dgS2+wECaTsgSL/mXUD8F8Fq5WDubNJiyCCppAm1wDdZKnMNtJnkoTXJ57CU7ylIg9yVMQz9ZzcMDsJE8lky7PbsFJ/l8a/tvedycX4Tye5C/PL/I8FzfYqLp2258mf3lfSXWyvgp6fw0mCQhWi8AdcsGGMDL9StCY3WV+oRmII2P5kumfkVHfBpuyxxOIglrpI13WU3IVI2FiwPTtiBf9qanviJm7YDMwA2ZnguWxA6bW7X65lAgFm8R10w8uz+dF7IdLvdxJnkIALs/zdE7yFEzyOjMejuN/v170j8tTBMPlCxaDn+SpItLleYDLSZ73v8rzJBNff+45O8mzfvPpYXweJfjS+byfytIpXWBj3XvA6GjU+FTn/n9vK+QGUqtyeU50eyVv7RDkT0WbuMV9wlHrGC4NHdFaQTvah9Z30Bru/2gNJg3LJKLGE3afD66PFKvs6Yz4/N4ARv5I1Pv00vQWD72HFE+Ih2FK5L9Ea3ZJWCoQrW+K/QuLwbWI9rzP2OIKKZcPF/9Un4fvd5OvE+c0neSRnsbkx0VfuTw1iZ3kqYDM1nPXA3/me1W2N07ymHKw9nhuenD5+rn9uctoP7P/K7eqRG3JruWi3+T8Vi4DM/1Q80W/yTi3yrPTTL/VdNFvOsIlYbzR+vQr14JHjcfu0SRgD9v9WAPa51YycZkzYvZAmZf9L3n3JU+0wpZhKHy/m31VPukvFK78Mntv11J+Sr5hyt2fv2FnVzjwYhEJldmHpX7ye9XLflZiuYIlwVE7Rgp3nEcdOVx4QqTFSzcjG54v4Zwo3KYQNW++x4rgferyFI/y5+fpedbMvuQpnh+Vr6Xc7A0Zw1jCxZ4XOoslfzmPRn3I8S4lJ534fY21ZMlTZ4zFWzKPJQ56v2TuRLP4WOZ8v8Und6EoPr8S0HL3RlD/K3N7iNWNZJ7+G4x9ljlJg+6fJU9UU0ZduOQ5fqXyzOUQVH9mpgE/yfP6S4dEvuVTXJ7jn7qeTGBzkr+8r3H/cj5C7oscUZ8EvS9yxPsoqH2SwyXfofuZByAFI9pm+yeofZV4LnqwCR1cBh6M7ZwrlIKW7SZmvTzJ8/lS+XbZz5KfTRzfcHlmHrUu28Sd80Ht58T5WZdnuhqXz1glepKn+93leTCzrw9PHHb5eMnXuDzHh/X7BvT3fb+Fz+3/OC/5RKlniNfzK/Ljot9cnuPJ+vwd4zMneYrP2PpHroex7xu5fcj2Z7zlQ6W5NHI8MygxUqzIXRa0FDEyWXLQcuTII2ZsfHbkAaxB48+RGVdO8rz/pf4kRmxODFoXuWsAUV9JPDwy/W/Q4usYLvUnWqyN1eBeToLVSEGj5xxsDBo85x6vYA3rWLpkqdmON4t51jyi2RgxuM4sGnPiJQwl26ziZ7KsyC0JIZ+pYE7WOhbLJSQg4134hEfNiGduaFCHPWPNulGNZm4EULYwzoYkjSaxc2CNaDzqOdv4IaznzzYlBzPnxW5+dISK0hoktGOLDclicha7ZtHqqlr1wkZU1c5+7nG3TiSmO2/+MFTx0vxhkMvNH4Y4aLrmGyJTj9p1j/rd5uNGND6GHu3II+a1dv0yRVxLsQJmbqZWEgcsPI5BI6eBE+V2018SB0EzMYELFSwSzTTO0TLTzGYRTbEGvF2jaVZuX41JK70ufz9rpOYqLxwNV3lR9YFv5KKRmqu8rw/LD1t/kq8aebzKt0/Jt8P7cutW+aT8+JR810jNZb91rVy8yI9Pvq+NCWbDe8l3O4/c/xd0f6IZNdVk5EBcNDq0gEyTHkkP3JgQlMvpIh810h0wseWVQ1f5bn+fLMGkma2AgbWncfZBn8P58s4NHlyXjCaKidy29aj7jRzVPUdS15MKI/d0Tl1PChQ/Z54+5cn4TUZfyff1krfnwV5tawRlayM1vX95ak5qys3BhluyGa5sRqamXdTMdpuMFC+iPZOMjzoio1camjmImIhMxlx7le+6Pig/NfPKHIDJZlVe5X19qLHLMoVXebm/LvKWaeb1ydZUz983m5/OifVNcDJUnhrlktonV/lp+4Hk88HFZPlq68ny41N/v+j9clnPop0qV3nzBFG+aibvKl9sfVjen4fplvx5iGLKxkFHTGzl7ueFAvXZyA94QEw2VrqEhd/ZJp8ktPeyjd66yBufBAe687SJ3zf5Yc9P4SfPVHFAyaK/Ce3VYpVVCf3lXfejEStkToy+/kT+WMy/ThjYX/I6nRnv9011V0WeCqtKtsw6JkpKtpHxGOvcgzmlkgP9qWJzFzIWKhSbH5PR/i8WkeREcLHpYhmp1XZdoP59SoRtAkeNeyOVYVP/qGDhYmkaD+HGomJhTB40sykuNcyPvIfdn/9C0qmVwXzeu3b+VP5ew1MsuJ9tKnHDQsRic8O5MLXYgHgu/Fjy2hmC91dx+nPMEVWrjOnMcG2drh31TzXuuI72QLVKUM7+VcuJcWFAtcp4bnyoRvzJw2mrTXLiwqRqlIID/eU9z1SfH9fThl0NJu7IxvyC8atNnK2pY2pc2szcwiSCuYUlr8wvqP+XvDI7YCFHrUbCh+e3OnknNobUpvbnxMKMavSjkQOa1RNNXEq8p5haLQHOCujajB252KgOzalEZneoFmSNEW+93Q2VFEBhu2ozfWJkUnub6BwvY4a8xCdeR2HYI9FV8Gx5+wDA2RnWFRMjVlE3C55eymR8hklM+B1a0uMc2T5uxlO4GcJoDkvWC20BKOLx7Jx8B/A4+2YZ+AUgnbeH/0UF4CrZQNpdDkUfrlrUMqOZ1mzIQ+QGsWZ6L/IYieccvHcAl3jvOXhWM4arZAM4I1estK58kZEHZS+Alo0V3ks29CQW7KtvRlQWK/rTCyD28s4Q0i9M+w6XoVhTPdKdU6RlNZMz8lCs7tVvjcfQBTUyFoCqWPYMOavPpDR9N7MwcsN5d83X8cp6EiZ8AJAl82Rk+ACgyrYn5cMHANVYdSPmjzyyqhcL/vMEqgVQa2ZgH/kCyESFOHCcx3Mk3DtgYgCumwO/ABTR6caVFydqjT3hbSpg0io19ame/ROvABqE45Ek3bJCifvhe9dLMQUeLdmtEixgoGMT1thL4+Yb+uGeXXpngKXWU+QTZ7n1ncyjD2ea75LNG96HwrwHwxrh7gCxjBN3Oj6ncn18aR4MLJbABtAjJb12LznSYVTTiUeHbbKqqIBE75D1iCb2H4aHRXnizvAyzcsqFW1JvH2Hotr7WStxBlTV3s82+1eAastKJZLDBgNfSjBHO5w4HFjeNP2WmChodMs/RGaO7ZaA4IzRHk0v25u5zfaQra4AsvmeXIEfAbRK09RM4gnn07Y3918PTwNx3mV6h19CZTxthsTOvMBe2gySDoAvPa0U6ZKrmcZ6tJM1/AvdtgZZZDPZEU1Y3jJthFvixvyZ7MNxQmWPwIoKIDWzmU6TAnCVijbbX3oDFkBqEHdShd7By9QLRjWnVV2mwjXNZlXuPAy9tOWFLomYTRDcFUAu/mZQtkciE252bWreuRt6h24GFg9+nDYCegNIa3TrI66YDtgAb0ylL91NL7EDfgRQxmo/kvXW4onrmgLZRW904rodoIpF5tMCIbvdlzfftGVFJdDsxFWMt053aSrard8AWP/wy/e///DHv/z1x3/847fff/35718+/v+//vzrl7/9+vM/f/rL+3/67Yfvf/my/u1/AQ==);lineShape=1;" vertex="1" parent="1">
          <mxGeometry x="20" y="380" width="480" height="400" as="geometry" />
        </mxCell>
        <mxCell id="OE2S1h-xnGmrlmJOHICp-8" value="" style="shape=stencil(lZ3JkiQ3kkS/htcUxw6ce2b+gyJd3aR0D4tCsmf5+wGGEhlRqp7PKm9c1CLh7oDBFjWzH8pffv/px1+//JCv3//47es/vvz3z3/946cfyr/9kPPPv/z05bef/9j/9EP59x/KX/729bcvf//t679++euf//7rjwd5/uk/v/7X+YX/+VMuv5V6hPL1v3/+h/J2tf//D//xJ/yfP//yLbwIvHSEd4GPifDxDby+XRfCp8Azr13h7XO/Pj7z6+3tSp+C5/EpeMsIXwIfleD1EvjixXz7Vftb5ke9BF7xReYq8I57Jg2BL1xMSt/Ax1vCF3lVgRd4keltTYE3eNT0NpfAFyxmw7/99fl4s98LH/zrVeAL1z6+fe/rLS2EXwKvuJheBN5xMa0LfMKeSW/12zeTrrdUCC/HaeMrvnnZ8Rs/YFOmtyy/n1B57N9Pii/4NuXAbnzHbVzt93kv6Pvchxiuhf25luJJne3NUxQ/QEHZzt/4xfeOPG/BY57fuuEbKsxVFT/h+xbbD/sihPUXW099K/C9ytu6FN/h/dfH0X7BT3je+jjb7/j2luB91oeWfMFXxHf7fTpf9aE8XvB0wW28nJd9w+H76UPxFb7XHZ7uZ1/PeLtAX/nzDtQPd/gO+q0+buQX/EK8nt+Jl8XeXZfi+X3OofgB+qfaeVxvF7yf9vi/L3jSb3u3X4pv8L2a2jAbP+F9toe99cDn6+3C9eSs+ALnZeOL4km/NTXZNn7i+1T8vu8+9fsJ9XN7+AEv+Ab77Q5P+rk9vv47PuN5fLftX/DkqWz8VHzl72t4spn3fjM83Y9NreDj9uF5n0XxZG9UtQeO44f6Khu+wv4pet6PBkB8k++17yPYP/u+/va8byeE9kN+uCgv+Mb2hpzfge/H/OiNJ/2ZH7fzC54dkSW/Px9f5Pv8nI0neyPZ/pno1Jkvsu1/8kjTw1p4wVMowJyXjac4hv1+Yf2cHo7ZC57teblPN77xepriST+nx+35jk/B+uW+3njSV/Z9y7vz+RFe1p8fN9R34ynkYPuzsP5Mqk82ns5LfoSx3vHvGuMjfFd8cH6T4sn+sZhJqXj/ZrUfNp7836z3XXm3AD/Cf3sflYb+Tn54Ny/4ir9fu+LJf8x6H5X+eMMf4PU8dvRfstqrG0+xxaL2Zxl4Hot93/G4ET7AF/t9CrcUjRdu/ILnLY+38Y6f6E8V+14zuH8dPxgv+2dhFPAOT9/3Dk/+neHrhfaDPW/l++Lu9zv/vuHXp9aT8P4tD2vtBU/67Q7P50XiUZXtc//99zzHd+PJvvX3kzGe5u+/PDTkR/ii+GA9357fyvZ2sbxMRX1bNKm08XS/m/6pDf2jOzw/r8T3KtvnReO3lfX5HX7i74t/XQfaA+URnX7BU16hqL1R2Z7PD2vwHT9xv2WNzm886ZOs8cCN53isxDfqwvOYH9HyF3xn+3MpnvzB92jAA9+uIL4t9vbGU/zH7PkW2ueSr0uPG/8DfF+Kb+gfOZ72s+O3hYnvx/F0vyeNN248+wuKL4+Ix3fjeT36/jmvbf5gq5hl9/1QI3+wKp7iXb4/t37+1H5uaC+Z/7jxhd/PUDznp8ZU/OT4w7f6p217nv3BoXj2Z5f9PvMcLnmf256H9Zv/tfHs72j6f6A+yY9o/zt+on+dNVW88ewvSDy8rcB/EXtj48l/L5of2Xh63qLft19or1b9XhvfML8g32vjOT8i7I6e8P1Xzff1FKxHvldPeF7aIxrwjs+oP5vaez2KV4v9sPFETWgPa/kFT/ZDN8ZJQX+z23oKxpO75pc3fsD3Hbr/N57s/6Esq15xf47Hbf6Cp/traP5x40lfDdXPneMzQ+NvG0/xoqHx8I0n/27YfujI3xgar954ivfe4SevR/Bszw+lCW08xf/v8MRvcfwM9s9aiqf3M9Xe7pxvnQ9v6x2/kN8yTd8u9Aen6auF8YT52L0veIpPzsft/IInf2HqeR8X7oc7POkfW8/GUzzT3s9Ij7/4Eb4qnvT5VH9zpOi8CE2O4/l23kfG/NHQ+PwouN98PQXtVdvPG0/6aqr/Piraz1Pz0YOpqlPth40n/TD1vhgN83fzYY2/4Om+m+ovD9bPy/ZPR/7J0nzrGBifX2pPbnxHfPvWfhsTz8t6aO8XPNnDy94/kyeXxg8Hx5OX5kfmhezipfnfjef9rMxSjj9MzV9vPMWvpq0/Yf53Kj9tZnyfU/NrG0/+lOmTjafvO9Tf3Hi+r8V/nwX329B4xWS+4lB/YeMpPjCUj7fxrM/lvMwa2GPtUjy//7oUT/6C4xsWEvh6mI0/9DxuPNtvxfDknw7lO82O8QHzLzae+J9d7dXJ+rYbNbxj/K0rn3AOzC93O+8D+Wld7ZmNZ36drn+gvddMX3F+s+l9NCeeR+NHbTytp2r8bXK+8g5P9kM1/bPweY3Pua6Az+l4Yv/f4SmeX5U/s/EU3zB+6Uqor+rb6oonf9b4mSsF+03sh5UDPucyPK2na35w48l+6GpvrxL4+6I/N56+r/l3G8/+l/AxNn6hvZRkP1SMXy2Nh2w8lvlctkGZQJ+SMly2AHnMyUoYtgBS8rLeeavhnZGKOpGLL71U1AvYAsiqqo8g+4sApQmT8coX35PJiMqrc+FM08zEFiDP/BD/mwpgKmOor7cFOn2H8aDuvQhgMmaq9bEGVy8tTfdvAaRvXbakgfkYL2DaAlgsaRnbLUAWxUk52DNgnV8xgcnFpO8psFcBSuK0ByfmRQBrCYeGnY4A0fSmbW+umziOZVMBSlSXy262yZVDWakvWwBTM0VjK1uAchWlKfl6CxAZswy1vrYAZn+mmoNbYJF5cSkfZy2MN9RkW2NxAZExZrYAVuxUTdkdATJ5muagF3PYatek2loYBKzDrJiFUcw6NSwTCSzlNUZLWhrYDv5Cu+x+4EjyIVLYdyBTu1kudy3kYrRsxlhQTGTVEUeArMmm4agjQA9t/l0kYAmGSGCqRxIJWEgtEOiX5tgigXT34eDEdauqiP6C0byCD9er+v1rYR1tt8K04AD1rpHutdjTsNTo0Uvkyg/lAi2u3ehTyWRbgO7pkztydU/RpkvTH1uA0ivP7MvrlUX5BiuYPrcoLckqlM/FThGnYrt1okt5MhLy0EGOsZkTNzgo1zQrvAUwCtntjuMypjE0jrSY9z4skbYFMv0F30vcP2JeZpx0DK3MZEe0Y23zFpDg7hbA4LrrpY5NXE6we6kAPnQxb7chf/CEl7MKUEB1VmV4rIYG1gkYm4tPIaLZzFivqIxns2u3YlJzC6giK+jiT7+nC6qZIzBVgOo2pxuJTFSffqYzRpJPINtCV5jadwc8IZdqC0gyYgvQpXhi2R4NpC897FJkuu4W0K1xIT9nWsLmBFh5ScsivpSxmZZinou1xlTrfnIN/LQk8FzogM9lWbyJUcq5LM3AtJX9EuVMT65bXZd6u1sAE82XMsuDzMEJJFvqg2yNExmeKkChx3MguwrQ5ts6QrN/Ay2yVbU8bXJ58hbQh+Z6ieUJk46RxNUso80VHCcyaSk0KhFZTS+UIKe3LFw0GzZVOKHMpgJknJxb2dKkFCM7935RAdwaXRsDbQF8S90ypQVv0SOwVICs+2PsyJKYG3QEigog+cIulMndIW6eIbFe8reUoiXpAbowZnwrEC1pqgBp79U1EDLYtfTXuq1xairkH24LIKulGy1nYCTx5hlGtPnktQ4mlp4TJ8y9hr7oEcgqgIrM7KXt2RFX+mgNI49RfGl1a6HH1ePLbL7B9JNnEudFgPpHHQH5cBmdpqOMjYFI8dZlFPSRkALq6n4LoF5qSoLeAri9m3bxGlylu5q1G+S2EUdgqgC5NC7QF3pZtwK4+e4EiHp2IzCxt9KtAGU4njnKFwHcrU3pGX2gsX6Mk64CwYeTHErnBmCr6ZXVucPAappTPJE//gsSweoBx9OaYh2SP39pSTf3hmmdI1BUgGgIboZuAcqWHVZAVQEkklbtlHAqM+gAVW1F1SvfDxYz3gIXCRRVZL3whyuaQzmBbXpLReNLnemVR8Drkz4nkD77F1L4F0RrXKzu7wRwa5hA4/yDv9ZTdUcHyAUmRuFuBAZfincCFKB98oLeBTpr7/I4Li8CeItaL8wWKgGJ/rTG5KKqiqxV3nxVw9itRlpDPPYWHFEjwJ0CabaX9KEDL8ta6p2ScL7YJdTSgiPaborU0Wkye+lke+kZuoZaTtl/YHtLn4yFNBj3sioH1Z5concBrrxaXa3KyomjZSSVGjhNRlbeAlTcfnIy8heYUnXSRPJaufxkDdUatXFAaigjpHID3UM+so4ruCQrmatBXMNq1Cr3SH5yiV4E0GM3dlFNbHtPa+uS2HSY1ieH497PtOlDoCyOYE3rbMe8mUMNktZeTL0+yWXrXYWWwFJ/ugyO8y3rftbZY78TQA/FspalMX/WnyGIVS61KktwKS69UAqXIK+pDvgWIMLT+dL2F4gbuqZ1cSt8x03NP5TC7vHUe7pkjiROJW6XjKnaNTUvWrjS37XGad3ID6296C72soY2x9gClMV3ZZy52vbJO3gRwGcY1m92sgM+NM6XuUHSGurtPmu8PhIQI/EUAdFesiRk7nwDGTMnM/V5deVgBVNEjnGSVQBv0a7nIQf3tAVoMxeCeWQ9B+5xVwc8c6nustqKzL39j0BWATwPlnTJgT/tApljM76kjDTJm4fO7D/4d0jIij8CQwWIunAjEERDfUlBNNSC/Zm7gPlbSgvZFP7h0ntlynemExLT846AdZrHoJqV5iUeC+M5xdOLP0hCZhUIEkc6rYO7W9wIDL6yrH/MFgh0qwsEasaXFGQ49LX2SM3oh+vRmdatwSyvs1vlocP7QXTrFkBj3c504r4Gfj+kypaAZY8TjxzzrOUZ/RIsyQSidLMPuwlu0aoCRLm9EQiMxDuBIM2pz5Ci+0HfEk9MuhUIHlrr46KtpDWTETVCuafRE0usiMlOzzq1Jx49AcvScvnTMqb34KvH85scyW3ac21wTLNpIJdbMC2jLobppaa/j++zWWaGtWPTK6Exu8GyVy0KsF76+7j+qkxNbuF4UlcSaURyqieiKoerivYg4BaXywjt3EJtWcEgt8Rf3lOe9brPDOD9b0Q/bkm6LnNqWUdf2tMkIOIum0mDHu20Yi0eCTctQpowvjOt5jwxRbZpWIHZErOqPkkRh10tA2S6TZvBcPH7sZl87K4cvtZSPLU0WRpF4ZYIY2lPjQA/ldN8cbnIUB8zwHcd6Rjgm/bkDfCWArtQP49y8z4Jn1XfBvik+/PiljuXpoMvpND2pT0uL0ykng6Auh/o/Har/rxQ33azKTkZ15ua9hempbrNIOSRB6fjp55fLNbLah9emCvvpv85FdIvtVcvjPE360F2PR7oHj/9fFESrlnM9EJ7o/UbPK3filsuHvFmSfILW8S3ovZVgLcZPzxio1lLEMafDvW6nxFv9RcBfvh5p+et1uMpxF+2fiontxl4vB+qcRp4f9ai6R4e0bvx0iMmaElkM7I5i1GTf1+qr6lWeR6MaFnaueHCPGa5u99ppIX1JOU0Txn6+wnbzxTzNxPyEorP4OSRRtazm+3JYjOTEtbWFZuxlzBgUXzmMd6/5bIZvWjPlEt7TiUsPMpL76PEIzmsZ1PmkWHDZpSiv3+SUUXxcB6z+csZA6jZaFtMGfSZzRkD5Tnp9+Kqknxpu5nMjYiW2qsBftpMRMZbmjbE2/vHkYuelGJ8U/s2Y4Fvsh5tIV5nyjI++/fFblnJcpt436XLZspiBmHaCEsMtwzfbdhZQvt1ZDSGq95dGXVnVdMzghfdCcR7ra5I8OJVEngOWiVe+mZ4UrlYGZmtGFeaaISpDcwxnKpR+Yz5S+vCyJXa9UaBYA9De5GZRzTrYtB8N/4FkoWa5iB5XqjPW+aeP8btwB3ZlCoY7Xcdlhucpv45uPIhgsnwFlXkwSTJ1BIuJqkOxvZPN3Bcu30mbuJa9Nd5JrbSDfD+qFryEx2+T8G7JmN4vov5kjzey2ifbMoZnZEty31TdrN0qcFi0lq/FHXSlMg7W96paKSGhx+45REMPzbLJsCb5RSsx1knjDfLL3G/SrMsA7xZrgF+6TQwxj8Dpd+Jt+lh/H5Oosa+F+y3ZyLr+zzDcz/o7+Mw4642SMJMcx7uOZNne2xL9VQpMnu6+ep6qNAjG3s58Mwvz9xQZHZ75lnXT0SZYtPeuBl0yZqZYCbbYR3r/iTlXKpG6hPqz0Pl/nb9Fw9vvonkUiagWPOaIJJ1E4kmI6AsvV6CyOCl/gMPw6hJ91vQ3Dx7pAybg2Z1ri6slzmVJfq9qOqiWneVC0m11bqVX8iTv4v8ErPkLrKM+JvINa7nJjKOz3sTeSf8XWQf8Un1eYAvagTz895lPhDf1O0L8DYNL8BbB8fgeafW1vJ+butm/9MwiUtt4QvNz24N9LjXVs+Ox4aVRbuwXWyb23THC++L3rQMhTMrp+7+M/qzD6X1c6ak27SoC0MkZ/aaPi853+PSmi8eljaS6x/sInmTucdhijfMAPz9G+YB4m+YDYi/YU4EXTMtk43v02qMArzVhoX49ZnnnTf6GZlDye0fsjem9V7lYd7zJrNItXPzZv9gV0ez93g4ymxKHedM4Wl8pusnpvm0muSL21gOI/yj/p83/iMO95pGAkd9OC0zGvSLXM5sQ2bqZdU13DMt3YQ6ibmYVF8F3TOy7p/M1RBF45EF78cz+0WKFrkKrFiBIIZHn7NZnnjkx1t2ImCOWri2Rn1nJP5TuQanaV1djXoZyvupGP/xvoGNW/lY28AWVVrJ+W1hSz9dT1C5IvZSj9qLyf3Yo6oSY5YHfRi16w83q7TgKg93v8MHVZOyHwafd5v2Nrj42ypLeZjZ8ulzXJM51N9ZXAlgTAIeyXDw+vvIvPf7KCgluRPAYhWrBo7KYYbVkwUFN3cCSBd3gaBoyJ8hKEvytxQUPt0JIAXfBYLiraE3R1QeNozkExSgjZuaOFRG46YmLigU15q4oBDFhmFGhYA2TT4qNRxW7RUUMxpXOCqXvBMIOsD4koIuBSoQFJXazNOobNVfa1AY6x8uKL31rREU91pbg6h82FzFqEB53FQ0B88gFc1RkbV1E4rKuO1MR4XiLhCUovuSgmJ3e0tROb0VU0QF+/bhopYALhA0HfAlBW0N/KELt3Yz3Rq1ZvC9FDR/8C8dtJewwb5P8sb3/oWGPJabziMtWpJEt3PnQjMbPn0qJ4P+LLK9g/7w06iXPH73NKWRt8Rj7E7bm6QC6CNNo7UsLJdYlqTKiy8Ubw508f3graw4L3c6IlmvH9TeSx3D0xwo6OokNY5MiTmznqxfEbYvtcn2pSANc1mZS+EZKFtAotclmB27rA1U5fZ0S/3JUnmEw9KATWl8T1tEtAQutxUHlIbs7nRdmtQLeordSwQvVitmgy7Gy04Ez8s83zqpAPoolkoui9Wxb/DFxoMdoRo03l/K7jhN9ugZphLVK/Md1tR4Q9woUBIWcStCydjVwiEQU5Yn6f0pdXwaNrJ2lXu0No7CWn1rDS5eK5ipnRvU2cyeGvTcHqpoaugFie6rwT1qNtlpL8rPoNt7RTNKlglg3z+L1rWw65IogXaFTVilk0LiO8gmJjRmPK2m6rgxgdJDxC2I6Vv1ZAvM9aZBshY0OzTWWQus76pmYquYpzpxeokTN25QV3V7tyB2Uu0tdd6tRqWJ2k9XPUBRg2srU45aaLtA0KTbBYI24HcC2Gi8qq8YtTK/E8DN523xg3bsxraOGr5XG4DA9WTec/vwQlhAW8oHPbetoKIHs5Oa6qUemLpNt3evURMf7dRfwzkr8gyBg2xk1d4idS+B7C0QtVO0v4DeqAt01t7Waqr3KEMmTk3vfO0aJfOM6whac9rIkcx/QZNqI3qGm6Em/Fo1DTe5Q3y/mbOCbY+7TiCMRr+4QNgdUZcUjK+5Ewhar8mSohE8Ns0yGvJj3yEaI9SVbx8NKupK6I9GIdleioYtdXU4onFOdwJBvzmJCsQjqYR1MMJGgZJmPmO1gtb+lwqgW9Zt6FWNGitLwOgMH+NopWjv0bhrmPkP0QC1YePNghFtluiMhsBZojMaM2dpyGiQ3dAgQjQqz8LM0TA+i3xH4/7uBHCgoOU4opGFNps7GoporzUau2gfLhrs6H8hGGpi+eNoOKV/uMCE89caTGfyD1eRzXj7FzDM7A8dprSzCaBlbCNHZovmluqU3dAiE0ryDEaOWDfPGbaTXLYkNH+aRrBmMDbFCqbnYMvYeKJn8C8LKPEnYBaVm+HFaGBZadyzTeC9QNJY5QxCwEnJnHNyZvTSaoc5OaV9WSPWiZyQM4lb/gITnuayCbUrYrDmrAJ04qaljg6plQXE2108CmnacJktQJpvDo2RLW7gN23qw+Kw3XP3vwiQRTaHPQP31JnjZrg9MQWOjugqQFzQaTMZtgAldqYV8+xDS9p7mi96hrbRQ1tX78X82mke++kdS4Rum8P1nKt4L9DU9n52y/1IQCyyxZMr9p0peukZGvlIQNtDdwyETBtkt5jWugVELz3ncdwLZGUKrI5J85k147d4zvu8NPpzbAMqRbEmR4uvrGF5oDUwHTyG5l4X51CGVbs/0zD3ApZOOIke+gvNjujE1zqqOuCLL8VToWQCtL23gCqyye2Fsrpli8ltI1k79sn9Zq0f8jNTeivQLd18xmBxh1R96IUJvD5tayysXOhDO12cjDWX6qleWpjh6K7IFvK8TsA3mQBVAxZjV7Pp0LPppYVXVk9qzRwBbpWqszEu9o9PQiN9TmLqxRtKDPUIQgnzUkIJa0ofvNuTs7MtS5d1yxqwfJJRPhJIvqHAnm5JPdi18BpqlyZSgj1erWBrLXRTtoBWKHCSutpkxCNAPQaM27t4Umi1UVlrIR2h2gjwo2voGSzX+aTT3AsUTTctDn7XpGHdw78hgetGE5ANVKZmhJ+TDO8FjI7wnPd4L9A0fHL4N9Stwu04TkKUrMST4Cot181fICciLztxEyugsl90bA5kizSvicG+Q2o1AXLbTy87ewbaS4eN3FWAcp2HUZ1UgNyUZ9uYVwFqnHNpUu7YcdQT04iDi0u5toB6ToN7OxkvNjCPT1lFUgHy87eAOxHkEyQb0XSSBkHnUPnSnE1N1gAl8JySVZSugCxpLb/OOB96Szbs/biLJGBNhhbPSE7ZtHdD7Z2SuSnsI2+By7xwiseny45owNHTxPxiur7N/l2VY1I3gQpSGTZ2+ox+h8tkmGVc0FSy+ZqLK6W7OTQFFZKNYD/xWuxRqGefeaFGLFpMg6taeL64k1oxwzAhFaSYskuY7i8Ww+EZKXd4YsAVsyK508odng5YUT8piPre4ekWL1rcEgS6i0ZKgkh60cYOc2IcsOj+nHwhV8vWDXYsNIA2OfhUb7If3JVWzsvkweDN1tPRC2lqj8+OV0CzrEFHi8j0z+xoXHd1u2bDi7trKGLyFWZDN2fDzL41OpgcRnY830cW3ZlcjtwtE8sUXJvoeVrNIF7TeZyttlTBxlMNuZHQTvocf1+cgslFizZCbHLn5Pcq5Rc83++aFM7IWLOROZM7jVph3aFIUI5Ay+QOB4OyR6ZPeObStNQody6bxpFa3GnIiGSLO/sYF25y5yNjtk2e+abPe6hC2INfzstJFuDzSj5xdM72aSOmwTSHobG6wSUrQ+2lwcwOq2AfFWMfVuw6Kupny7eOyH5WtlnB+26oQ7LxdP8OtT9HwZydubaD+UTemCVzhkL12+DOU94oJmE2zWg1G0/2m2WvT5IG71MJXwzuBHeHp4IQW09fyG+0xjud9ZW9n86daIygufHclV3J8gv3W9fKvz555p5SLDpH5Wx/drafHT84l3SDxxl6N3jeD/q8He9ff58d71/fDx31lTPeW3BetNqC6bdeFcAzfvtj977jK8+QVHu11yD+IPZ8Z6JHU/3Wmfxo/kvnDhKWEjkFNTxzxOppcGad7R8ue7X6tZ6R4Wr+6cbTeamaiju52M/4y535TsVqRJjXXzS+1LlwwOIPnSsTjAFzysow/iD+aWf7Nmujzsa58qzklMbxk6zDUxrPkE+qD0+WmmK+GhjfeAy9q/3WBsYDk45S2ni6H40e1LhvlDX+DaoxLVHcerAeiZ9sPMUDL/u+DeOBl+qfxsToOzyxli9tnNhY/9tI6VbxfvT3U1F/2qCWxjPejYrbKlKiL+VLtIJpesu3tYKdgq2ReOOZ7Y7PyGTw9eRoPYYnf9DxCe93Xz/HH+7wwXoEz52FL20M3rhT86Xxgca1cpfyQirHw5NmU5+jBD7Sn5fiWd9KS7k68b5LGm85oxDw9/V5J9oDWf3rOlC/GQmwDvT3s3IpNp7OV1Z7tXKNRVZ7o3bs/5U1/1g75h8dz/r8Ds/2huSnKnf+NcZCrcyJsPdfkXiaNf5ZmRqe1X7beNr/WePnZ1QKvh+J51cuwc92HnmI4B2e94PiE5K6fP2cr/T3k5hgYni2n+/wSCS6wdP97vvhit6nNVvCyVU3eD7vjseZw/q9CnfHucPT/W77p0y8v4wpVrh3iOnnwuQeo3KWgU3yzB8pA+OHSQujSkDUUX+zsD2f1D7feOoaklR/Fu5UnjQ+sPEUX00aDykN4wPJ3n9FfZI0X1A4n2j+V6n4vS71f5/kxu/z10pB/9f8tdMMkO1V2Q98X1xaV/cczfYBXki6hcfC3uF5/ZJPKTzZ8bLehxzPN3+wJMy3mj9YLsy3mn9XuNWE+XeF7wvzXwpPSrtsZDizsC/rfMrxfBscmTlfaf5F5hoXI8ydUYmIl3hX0CY1WQNdtueTxifzYJqjDSJhvor5F5mbP5i9mhvSX7PNSG9oDxTVn8+Z1h/FG72/MOLFfzkRV4x/Snwjc7y6aD49F9wPxaYAs/4sGt8+k2aQr+V40lc2CDWYYlw0vxNM1nE8d5Qoas8ciwLfv7DeTwSA4+32+zi5036f9fMdnnj+vh7Wz3f4YP1S37TQf7f9ufHERyoa/9l4nLRqNV0L7xcjZafJk1BtUDXnW4tNOeB8q+VTnmz8j/BZ8ZwfcTzvB232P4LzqMMyOtq3d/iA32t4sseK1sUk7ppsfNfEneQsn5Ua+oNF6xJOpQL+vtxfZ3Q434+Gp/Vnm/5QuUjHBk9X3M9JyyoSdxJItj+5a7D5U6ng+i8b5M33qdmfG8/2qvinifmNl82KyajPvS42Y/zt0vhA4rZrl/IPU0I+3qUdkhPfj5f2ozklJRj/F/5VutA+uWzQ+YX8T1//hf67vZ+FdK3LioQwm35ZdUqQHBTywMJYiA0t5FSEle7wDLAbOF3U5lhzRwXzS0eUxtJf58VoY79gE0jQpGMO/TIOBnYIuNTE6+iBJGM8cEWWtpxqqA9u4BSuTXqcGlYP3cCJPHIDJ91h8CjUZnCy7OzmqejY3MCp7iDpPctp8KTVvAVb59/A6VLzIGfw3sXGycEWE6WXgwypRjxQcSQNEGbk9ySNV3K5XFL3JIKrNxyQjSQ5zY+atfEmv0ijJvFnsswQb4LsE11pi4Xw/Q+//vjHT3/+y99+/uc/f//jt6//+PL6///29bcvf//t679++ev7f/r9px9//bL/7f8A);lineShape=1;" vertex="1" parent="1">
          <mxGeometry x="16.38" y="162.15" width="203.62" height="617.85" as="geometry" />
        </mxCell>
        <mxCell id="lzGn4VmTLZqamHLb16x8-3" value="" style="shape=stencil(lZ1Jki63kYRPw21ZYgbWPdyDZqJEmtSkjKJ6uH0Dza7JHfUF346Dx1+ZSCAQo8d35V/+8eP3f//hu/z847dff/nrD//1059++/G78q/f5fzTzz/+8OtPv+1/+q7823flX/78y68//OXXX/75859+//e/f3+Q55/+45f/PL/w37/LzZcyjlB+/uf3//C8zP5//+Hff4f/7aefP8DHSyuf4Okl5a/h/WUMgddJ8LQEvp6v4e1lpk/w/FIqwfsj8IHw9vnXy0tCeG0C74XgZQmcX7XkT/D6khPBcxV4awRPXeD8MM/8BN9/Dn/9eQTe4dnry9RfX7BnNvzzr/eXgr8+isA7fNX60rvAF8M/P8x4yXA83r7KO7wugtcl8P8/Xl/BP7/qfHngM234I3BeSNnA86Xxs+uvk56xX18vCZ/d4PXb4ONbHiY9wUo6nhTTDd9x2ziezqvjU7AtHd++ZSts/Pym58kvD+4dxxfe+I/i+ZA7ntezfr4ZUnlVoF/hs+I7n0T7/fUtJzft24HXcyqe16d8VoJpq3TeD03xhZ+nKJ4Vm1yGqQfr7/jG+7MofvL7fr5t00Cr6IavYCv4em7Fz78v+K35Gd8VX/h5DM/72Z+Hr3T9/fVS+HsZvjN+KH7y/vyM30Zy4v05FV95fxqeLFPHp+j7Gr58Iz7QD4ZnfaXrmV8yr4/hg+/bFc9Wm+zPbYwH+tPwZOvf8MH6CL6ige3vy+a+r+c2ovn55fu2wJ6R++h4arjfxHXaVnbG89Wm4gc+//is/7fhzOd3dsWTPbZvw8/6fBu3pP+3u5UUX0AfbvxUPJ3HN3fsA570W3s19N/wbG032w/r1WL5ypMeip/4vv3zepYneJ7xKL7i+oyueLL/Lc5Q0usX/ArfFF9hv7VXa/MDfuL7LnmerT8x1uB48sD9ecqrC/+H8WSf3/Bkz/jz19cT9xU+K77wehqe7JmNL4pf/L7y+w3tqxu+43lRfEd7wNezB/pnLsUP1Cfz83kvHAZpqm83nmNner44suG/P189sj+4P2egH5b8/kL9sL9OUTzpq673xcbTeemvq/0Bv+B7dbU36oP3b9c41MaTvdFfb88P+Im/Pz6/b02v8cyv8FPxpN+2NyfR0Yz6ret+2Hg6L131w8bT/nmLKb7hy0uC/d9frccPeA6ry/7ceIrP9Fdt9oavGJ/pr97cB3zBJIIEhDee7KvxGm34gCf7Ybxqvzd8w9D90PO48RXW54bvsJ+H2of17Qb5g/iO0f4bnuLINzzFW/x77f+C51f350B7oGvEf+NpPfurN/EBT/fvfjt5non+5tZXS/EN9Y/qt/mqYb7AS9i/LtyfG58VT+Htt+jWBzzrH/G/2ra3UT9IPHbjKX7VNf628bTf+uvXecOnQP+kpng6v3b/bvxge/iz/ml8XzS9jzae4gnmv2w8p+tkv2087bem+62FqcypePanJL7dInte4hUbT/ZJe43+veE5HmLZz42n/EV7jQZ8wA/2x2U/tMD+1AQo2/+eAW1BPmgsxXP+QuIh7S3x/gW+J8WTP2t5yo3neGaW8xilTZ+leIoHFrX/23zVAF/gxf7ceHrfovGNtlA/FDtfC+OxRe3zjR/4+7Ke/UF/pGg+v7M9n9Xf7Bx/zrrfNp7sk6yVFxtP93tW/dAz6qv8ert9wJM9mVT/973CiNf35Xxf0nhmr7h/kt7XvaI+SRrv7ZzvSxoP3HiyV5Pe172hvbrxj+LpfCUtC9r4gesp8dLeMV50w1O86Ibn76vP/+aR/UH8QH/8hm+4Px1P94XjJ94X/n1Zf97wZK+m1931hl/B93U85S9ueD4v+vwr+L6CH0+gT0SfbzzFN9Lrr33AU/4rqT02EuZb02s28wO+435ogs+YH0ladLXxVFuU1L8bBf2FpPHDjef1lHjOqPj8Wf2LUdE+eVuNNzzbk1nt242neoas9vnG032X1b8YHeNvWe2rjSd/udj7cn1F0Xzi4PjD2237AU/3Y9F49cZzheLTFc/1A1ned0bVbEPxXB/S7PfJn622Piuo5xH/YuO5NFDsw43neP5jz0P2RtP7aD5BfiEbvnFt7lA85ceb1mvNhPHbZoWZHK9or9bsBzzng8Q+nGw/Oz4H/rX4LzOKV0jR+MxY/Nletf0bvrxaXF/FQ6riG+6Hbr/P+Wi5X2ZFfWj54lnRHrN82cbTfW35qdnwvrb83Wx4Xzu+YzzQn78H8Ra5LzZ+4fdS/ED9Y/nByfVyjp9Rfr8rnvxZ/14zyu/L7y/0pyyeufGcj0uG53yc+HfrCZ5Hy6ufIH4u/u/ieuau52sl9I8sX7PxnG/KQ/Fkzw+9f1fG/TlUn2w8nceh+2EV9Hem+hcbT/nKad+roP0wVT8vjldMtR9WxXjXtPfleoy37MkHPNXXLfV3FjewLL1fNp7ul6X5r9UwnpweNVBWR4Ps9Ad0FaAbKSW9slfHV0hZO1kW5wiTBR1X56BC0Sj3GhiVTVXDgluA0hjJ6ua2AK6SJXq2ACWyU9fI+OIOnjTUdVtBqOYtcvJBgGK/aWkv1xocLFuX70DeWH7UnDsC5B4mbdE6ArCsx0G0ZUWBellWFLCSxyNALnfXmEckMDQJGAlMzZpEAkvDVIFAeTQPdQTIj35McXOgsCTNNB4BUDMla2r4CNA7lFfP/6MAHKAtoMYCN0OUqtnzIwB7qbiaYfOxdPX/tgDZU+/lcB8EyMAo0870xArdskyRcci2PurzbgG6UN5LuD4KUNF/1qzsFsCq/2JmD5dJ16p10keA+lKaNu6sINDSzdKYXKk+vlVg3h6JYkvr8tJ0sZ9aENt8WP35aLh0C9CF8l598VGA/KN8OUBY4F40ArcF0MOumhI9AvQXmtaoLc5JtH4RQCd7aJRsLex6a9MsgcVhsmV+wMK8RH9ey7Q+CFDirCeNFGwBrNTJZkoHpU/FfIfFtZHVduvC4EVvr7HAjwJU/dRflcpHAXqHcfkOKDDNXgoFpAI2EljmDix06cdjeikQSHbiQgG92Pk7nCSSvwMJFLuBQoHL1oATN9zWCASa3XGhgB8gFOhajBachzEu70DdjmNq+1CgBMbSfOZRM/Ad5mMBgYUNMjOZVbkwgzgtJXjuBwqZZDOl2XSYxYJEE7/DtCqtYyTCl56WtljctjaNnuXY3vRIVnh+fFESGJqZWgN365wX/wG3hlvGA3Nxc2kz+OLijRNLbSpAFtl6tHwpiM2sR1l1TvQHduuyAp3VMdSyBaTC+kSwQBmvbHupYYvNiWCaAJk/q1iQtaIZut5qSj8IkOlw/vdQAVICq2pc/8RN6R2aBZYL+nHLMmeLO5mXpaq2QAPrflmuYQuQL7q6WZUJm3uX+0AJq/PO7jcBcsCX1fefE0LfwRp6zhmkreEZhAcDtGtoicNWCxTiPwJLBSj0eEKZliQih+MISNaWXcurAJUhXAVIty5LtEwOSF1eevD2vglQqugiwIxPVwEqdrgK0JV1BJoKoPb2v9Dw2r0KUMLoKkAVS5cvXcNHMoHokUzgG89DiY6oCwRawwUo9HgRyBiQOsZOVoHgkbS0JUeP5LUqqFuHhrG3QPDhJGb8bo1/JSCG7uT2/SMwVYCCm8dKrSpABShHQCrCmFFmDTXhtgDlgY6A1WCRS3NC+1I0x0G1I5BVIFglLZvjQPnxFqRucXBed14K7fClp96ip7KQdqv5D1uAfNETFm8qQLnv47VJMW7DqPTxCx8VoCjcsvT64HL9Na1es/ItOrUgaNToO6gA01teBb7xkQrn8M3xGzlcpaECVDVyFUDr3gUSBpkvH+6tVPqPC+D9cBNAW8MFHr5F/aUfNn9M4FTX83mQL32il8GHMwE0El1gYprzPZ/xQSDY3nKmt0Bw4pTXlGuST6qrqwDl496zbx8EMr+0OK+dK0LW1Dr13vlSnNaoxGUwa1pnXONL0XIop1WJV0l7yxpbM1Ob8U9zFlsCws5wur/YlBZvtzP9mF/sWyAwTiQUfxrkAgNLBDKfaTMStwBqvqFB5h4o46FpztN0SI9kLCKdWUeWteX3xGfa6jT7w7u1mdZgIqzVtKqlB3ENY4pugW6tqvm2AB7RqsWFjckUlnVLBN26W0DfYfIRLdrP0LgGawtIXrQNDMVvAfGyWufNV7TmpDGP9bJEagtixll9oNZYa2RV961hvcYpku0qgFrD+p5axfzDssaqFhi62Tr162vC7ctAuXzpgq0iy3rVAm6F91LlDwIY10gaxm7MfuzZgUNXQbv10ch6S1jgccKxWQXQy3pULx0GEBbI8hcefOm57B0evB+2gJ6HBy3jubRc9bCwUBX2Umumcrp5C4gSqFyvcZJfQlzELOzTLLI6MYeyBZSqaXC2zMokK/dqTJtAsQWotO30ilQVwOr5YdMQOro0J0K8VIB06xbQ79Dwjjsh5aECxKg0nQKIVeW0LE2teES3gJjStWCg/AStlwpgQrvZsr4RVXwlIL5ozbyXmhHNZSQqnzZC5DDH8SPpd2Bq/OmTO9hjn1VvoPrwl64aX9oCFIU7zWtVBbCdxPjrtwAFBk873WclEBAcbgGJ8xXu6J9VLYHCFOQneTBUgKyZWdV0KOyxz2IsnFyzPotGdLcAlbZNM0PLwL7U0zYpxLvc9LEF5Euf2mauapFcVmFqjmmtAIW5kGZWrVEaklXMbGyflV86q/YuTL9yan/kO3C/6TTCnFJ4WbN9aQ5uzqzRn5KxXuMIyEunqOBJ/LjCNt8RMNZnimBtAelp2gJ4KVqRSua+x5nVdAiIrmdWU/q9l+0rAaf2xoKnrKVtZ6oPr5KSjTO54kx6gPJAtsRpxUKnQZMFZC9l5hM77fEmQB77NMaU0/PNj/SYAKUT3hkB3gQqxmbmo37coUkjJWBtVrmyrfFo5jUX/tKPeoqHOYxWydyyzMRZR6CpAPXHzUepDnLGHr/52NYIDKybAFW1HIGsAtF3kBP3YAHgEXhUAJXxTQCVwGMTlFb0SC4QPJIL4BF1AS5HugqgGXoToFqHi8BgrWHf4fR3BttbBDrforb5ElP7+gHaAmh7225Njd2B5zINKtAaWZa18rX7qPZONXppse63ABI+W/QnFSwmHVbUuwWQYnmpa3kapKmM3josEpd6DosvJU6JDGvvSUxjfipMugpQY+Ow3uPEgcHDOzRVAJs+lnpZKWHIa1heND1YrurdCcHwvjE1rrF4gqqzOWBybVhdDg/DGsMaODClM4ZuPG5MGMZ2wcMUNl7ZhdAJPVxdUmGDsbH3kqB3PMX4T0WQVI7wpu7G5omG3jA2k47kdafgSPKI6E2OroWObAtvvCZB0EDyjqGGrWHDko5crjSa9ng0vJWHFc1XVhFVA/UVGwsOl59EGHj/Fw3TFz6P2aZ5sV53dwpbLzZerteMdRzjUf0Q3AKP6jfODvVl5i+WBvepGbGEbn83fZvQbuymfxKex27B+WBmdVcXnutdu3UKJyZTMrbrhG2/3dicA3zSqswA/2itK+PbUnbsAO8XMOOHmZeM79pHnXi4mLHV88jzVpUtKHFft1UXcPlzK1oVwuTbzYJYD5MBGofHw+RsRhLCw32a6RMmV6zrMqGeaCCm7jceNlGtFikYvtk14fLwMFZLY3Fz0sbb+lAUp1aNCHLmuxaljWEy4Zo1OfPwoO+k993DPB8WVGJyzrI0sPxgGrHY/fIgWW4Z2tr7oKdXhnaJB79v7C8BvqkHE+AtXResj00XeDACXayoJsA/muEPvu+jmTfGH3foW37/3b35w/jH1ofwxt4Q4Lve1wHe2rYDfP3G97W+2RCfbX8SPqs9xvvH2cAD/OP6OcCnb/n9tNRfC/A3/cN43w+EtzpUXv9k/leAt2kuAb5oyJLJP5OVAQb4pO3yPKzkkCva+jCZpC0Pcqna21J62igUGN601pvvXnPFeSmbnyweU9t14XlqaFe9Q7FxG4LFHLPNdz2PUHsMjgyzWVeGUj42EJPTMUax8qBH0bWsiZsRbXrjg+F5G67IrfCXX+fRpfbspMwuK0Ox0cu68+Gzr0qd2pc9w1OTXQ8jybm9KnNI22nikdt+VlHPmCZggnPTM+hy+57h8bimI/nwfRP8ot9x1tLl+kD85XpC/OX6Q+rfy/WK+Mv1TeGCm3mA+Iv5gfiLeYOsvxfzCfEX84zwN/MvwJt5ifiL+Yr4i3mM+Iv5jbPYLuY94i/uA+Iv7gniL+4P4i/uFeIv7luA/7b3vbifSC97cW8DvLnPiL+45zjr8OL+I/4SXqACzlv4gtIBt/AI4oeG37nWuAxNbwX4eVl/4kxeWorJ11F9fD3pcqxWC/dgOrVa+onv6lo83EfWZrXhRg92TFUbtsqze2pXDgg2TWrXsuoHC/mq8WSwuVynkonw7LbTw2OWGBluF3uDyg9OY5TZ7+SVJU3f8OzmZmW5gZNo6VEOP7bqVjbOEqr+/JTub9biGrjQ3fU/euhD04UB/q3v4A86IY+fF8Rfwu+It7bNAG/D1Tjd0OtlfTj9+qg+wVnq1hr1YOV7t3awFKWnH8UnmpXjBUfoefVlJYGYbvZ0fML1H5aeY7q+Ye2jzEkyzN7IeF8M620Iyg/MvmVCw42XZouM6b9RlQGImQg2fmr5B9b1GWNvQX17RjlKVwOWYw4rP6hROZP4gxWbJk75k/T5Rc8j92/F9PEw4kMmDh1G7MCzzLxcjdvYvXyuYxvXMP3PBbrDuLo7puNPPaLQQaG9NGxgDE+kGTbMafB5Mf9oon07zH6eyGs5jCqHhzhs/FI87jcrOeXZamPZ6ICo8FcnLbH+XFb+9GCL9ftszA8CVFAwH6WkSVwBMh9VWYmJSuZjhcI84H0+SqqcElL4XarUM3ffP3rsU2Y2bOvPOeXUXJovUyRT2AyjhVMl6m0Rmqn34N9XApeydvoLybYGUx5PG12datS6pVujcqt70vs4NXT43uklPwgg9YN50FGLRLr0VOD2tgHZUZuHG11BI8lNIGhwU4GgGcYmxkXtNjcBbOhxgaBl6CaA58FfOmh7MoEgk+dfOgetWzeB6JGkfDhoP7PdGjW43QSwhc7bMYMmvWQtdEEbYLIa4kC3ukDQyujvUMIDJB+uouO4Bbx/E5uHk3lGzHB/OnVFIGx1115gpmg6DdBSK86DKWe2HtSAEMA61zPPgj/d9/LSbBDPrPXNUQO0C7CJO41b6zRx07La8IM80Sk5ArL5FhOVGG1C0JU0jVCsPGinX5gcuO73kGUbg0DwDhIZOZQDvKyivUuO2CjESDy0CSwgafWTPuF3ECPxUD/wsipXBLM7zqIVFoe+IuAdkb/QWHs7d0rDEMyFzqWxw1FVt5Yekd4ouUTnwTLVGDUG2xrGW1gG36JV47qFx6jOprZ3mZg5mZY5KTxBcTY7ojz1btp8w8K9hmeEUFMBbB5u9uGYzPdQNH3+cJXzLRfWqIdp17o6HDWx6dBVa9TAee3akVAD57VrC8nJ4rGABBEqDw6YXbf34daiD9f1UqyFHb+hcZbKFODT+jhr5RtoGDldQMExbFkb69ahDvgWQGogC+4dJjh66amX4uGaYwGlv+tsOli8rgZ0LlPvhzowIzdtDnEdmGKYlvKoTMB6uBeHCpCBtWxmaWUDaxlHwaFS5L/g7I44y+Cx77CYvPTRE9c4U76SNgK1oNI5GQErU8ctI+5piUmVkyYDWsJmqffhU28CmUcIWbnUSVhT+Z8RWbXMpPvG3tXY5lvZXrqg1lhFS5Ra5Zd29t+KSfYtINt7C5AZuopWWTV2LZdRx22B4JGcXzh4JD0PrFtX1UrPLUCdC4dJeqkAcuhXdQdaMJ+kqrHeBnOGm5F4uKp5xFwxAdytTRVZ4wHSPmKuLaxAWl0r3hqPID0T40wABwc4RQOXO6+hj9SfaByVuJY98WzAcWGHp7z+ZdJA4vMwjTciRyMiRPP1QFVa6q5/68iUMweA5zGIqjyTBvilRQn0wpM3jDCmV56ms2xrVJ40YAXlp8OfXtoyij2YlWnE0GdqBe1Wo2B4Jyn4SsBHdaCqXLaXOk/uW5ZWH3yhLM2W9RE9kgQGO/OpHgGb4oIXimVezxQXUpVLYwLRnBgXCCbR3ARwHsNNACcNGFVWMK8nPY8euWAk0E2Cpw7dJXCwkb9GMDrpJoB2ogsEE0fsU0QDppZ6ZtEIq6VUU9GQrKWR7GgM17KRboVdiKU5izNKjB9J53ZVHiuxbPBdxejjWhqjHQ1Lbo+27CqA80CWRipG53GZS+31d5aoLy+hoQI4KsauuREMRrW61cFpFL+qB6dR1rStEQxyuf2FYJqTbu9gGM1NIDCZ9JECL98soBl4+VMNy8kF1seKGyoQzESUq/qUifBfEGPgPeH7lYAcoMkcTmtqEf1kUikf03hSmbyXxGSKRq+6QDDc9SYQzOJzgWC0nqiZaATuTQBntd4E0G9ygWBQ8LR5s8Eo4ptA9EgiEIxTvgkEEwtdAEdC+yoFQ6f9L4TaW/9CMDjbN18wmntqUDca/j012hKNF58arpxBpMKGu04uMDrjAasKYPBkqu93QtX8DtJNsIJu5aFslYsLjNbQWMhi/qszWu/zl34PJH8lUEwAb6ChWZHFifxlNeQrYx5ydTXhVjAesOv9sIKpWl0NrMV1/KupGboFguF9EvValc901cEVJx7J0Uc506vxtL+itvd5SPoL1vy1BdBItClzq0XReAl9n2ghT2iTAqPVWfMlbUhYwQzpRzu8T3iRU0GSnVpBSm4pJd8KJr+YKb2CmifTfEfxcC5VkuDvqu0u0NUMXcF8nKam9ApmjzVTMzMabCT1EYv9By9hOm4Uj/eoJkDRx5m0fm6tcErEowLYL2G04YvH0nmDyFpMgDy0Q/Y9cHYX6BrqWxyTcoriDwGhryS0bj2SqLqwoUQx4thYQi+VoFkkX742CiTtVosFtD0m+BaP1gwFAt2I7t/jWncBm1oYCyT/C0Rpa5Tj74Gwu0C/vQN1nbbLFkeWY6s/W1zA2f2uXsir2rMGEgJF0JNpcDZ2+6OtjEc3UW+6hb0CZdaM3OMIULe5W5aLWZqaprQWJy+bpXiPBueGeb2ruavhff7rBwGKbZxxrrZKyAaVtGBtcRqiPZe9RJd7e7SgeXG9TV1mlS3sw67zspfIH603JYDMGv1iDaBA07rYIwDf4VD7ugCtknFDHwOFyHqzhoEXu8g1mZG10Nit1ky4eB5FMUKdNVHdFws/Ls6yFf/SE/Oppaubv3hGRqkX25WSFsVKphenFkvRdsUjQI+UbewIR9dLtsbXiTmIYn1EiyeDFJtE8B5EugpkS8Au7knLVpp4BOClzyyT9U0CNr84Euha6x69QzOfOvgL1Xy5QKCYvcQ92qd7y/8CCRjpzBGA7Z3dDA0EbCrVmpymXloMvCa2XCb3qdmB3QJ6ZU2swkhWZLQmJl5StxjT5Ly5zWBeA+3W1DRuvLirIVmjxYk80LLa3NwTkKRVKhrVPcEQ2HzJZp2eCCa9dL48EtWqJOPcCSJA6dEauhPyZBZKvYG44cVYyBa3LC+7fzp3XVvsMWjxMVegcYOCWW/BwHNzBDjPNMys564pj6pXpinRctgVTCGyHVR4SpPplsJTajRisph7oFtcNrNzaOFAnidsVLwro91prFCLC8k9+p7YR7II64NRDOuUOlFgmvJihgjTzFnd7+Q6gqYqa3KhQjXWFHbYLNcwJ4YjbCr9nKh/bnikQTT84Cks6pXPgcVZju/oU1Sryuhojhsr2sajZ6dxvMklR9VYdxq6/FUvpMlFU1VjvBuPU2SUvnpycqtqQerkujLrIJ1cSFzVyZxM42UsYacPHfez6LfJtGVV9cPMTFupztkhA+DfNzyZZf48CVupb3iMtmhk453s5iu8lUnhFCK9Lw7lEDngmmafTKtd1KF5H/j6BV7c9cGVBUX90MGBnKLJ48O7hfhspXMYPtD1HxPtw3ypFqS8gwWjDw8b0V4rC+VgJ8DaxE65I7yv9aEdXjvyGaw0l0t+zCEenMZOxtLWgucRD/3wCiJeYpkbT3UpSUPKpyoX7pekgcnBE5qN1XYUzAQ8mi4ZBWOxj95fI+P3Mjqxw3sJ+tbCESMhE5eNvA7q2R87j8zp9qh/NJjm9bH157Z7w3dOuVn9fudMzw1PNdo3PJUnOH5iT7+/L0dTH72P+sSQguMHBghueLL/b3iyxxzfo+9r/UFUi3HDB9+3Kj74vtJN1PB+sfN1erQYvxRPNOuPxltOwhf3QzE82T9WFtIr+ptWw9QLVqBawu807uF9Ifqns71t90vPyClg993Gk32V1B7rCf07y333hMkQa3zvHE9I2jzUuao/237msQTG/NWYriAbKy8XLmW1JxsTLmRr8Z3oX2SNz7SB3yur/9u4e9Ds1cZT4Y39qrF+M/t84ynVZVRWG0/2UrH1aVikVTT7cdr18ffFXt140ifGStUalkIVzey1ylN49b5uFe3/aj3olesNjEuD9aH5vxtP8W3L97aC+6FqfPhUgaD/K3mbltEftGq3xgyNznyQg/iJsj0k9F8svteY5r6q/jzMJDjB7DE85QuacUk8aD9YvHfj6fs2jRc11uftwldD9qrRQtSF91czXiKuPGnazFEn5i+MOCxg9GnGuTWD8ZDiL1dOdNrUszq48uzCqkQ5Rav/23iyV23CXu3YxWH5jsr5vhs+GLcpeI4/NI1XV24EuOH5vEizf2USw6bx9sMVhvkdsW8rxzea8akxeZmVFVYm3m7GRMb5wRue8oM3PMVP/Pl5zIavJ1Nz+nlhyrym8Zya0B5z/ZDQvm02NeNBe8CaeSrHW4yqsQZjn9Q+qTwmram/XPi+sPt049m+Wvb7WAup8fYycf9YPq5wbZnZD2VymaL9/sDvdaMHzfw8Qn7bA3tMp8x0rBKrqp9Lx25kx3M9xg1P953jo3yi4+n83vAUL/X15NboqvdLKVF+2fBUb+DPU9A/qmoPFOYKqUYjnHlsnk75KSnIb4r/WLgHtKp/WrjJtBqVM5MWGHVb4XHKVYsqC48br8rOlVewH5ywm/SnTWXNXA9vTQMBg3jReEgOinm1pjoPvO+MSTsP1CfG7Z2ZOc+mUp4KJfx96azKnF8r6t+9W5h/8PeZM8YYG99vhK/wS/FYD65V9plpdRxfgv3jeLofb/iM+Wh93xzsN13PzAX2FzzHr/T7pmB9HE/+4w1P9Tk3PI4BNvyD8TRfnyfQV46nfKh938T9bzc8f1/t72TmcsdPjM/783Bv8Q1P9tLtefj7Kp7r34rGoxLT2d/w1KpUtL4o8RgPm+q48RT/ueEpv+bPw8zdvp4tqM/R78tUCnYeU430Q1N8oD9lRFWkz6UeI/GYSX+eEqy/4jPmr2/4YH264snevuG5nkrxPBPphg/qqQyfWZ8L/onW0/DkL9zwgT1jeBzTrngOP1zgRP1wgVPxocGZ9sHO7sRUt6mGGd1EWeCcKMs2rhO/q9YFBgupZWPYsWRWP3exFA268ayDYjUJWKJSjJcaI9RFI5It+KoSsGrBedVxGVgub+4f87nbzPTKvdCa7OIZRFU3cEFVYKXOOfh1GeLHjSIWaEtYd9R0VhGXOTcfdk1WkUXJEzrp1iD+YA1s90np3AIkIZgHiQmGHg8OkNjok4fHvfjUdoYnexiEZ3sYmrqlwSBemak78uHxVtra9fCcWOVSeJiJyeGk320cDJO9TW2TeHhSi94eDw8vi+D7H/7+/W8//v4vf/7pb3/7x2+//vLXHz7+/z//8usPf/n1l3/+/Ke3//SPH7//+w/73/4X);lineShape=1;" vertex="1" parent="1">
          <mxGeometry x="314.5492258039394" y="86.33166350809722" width="216.25811684641772" height="554.8614465189473" as="geometry" />
        </mxCell>
      </root>
    </mxGraphModel>
  </diagram>
</mxfile>
